<?xml version="1.0" standalone="no"?>
<!DOCTYPE svg PUBLIC "-//W3C//DTD SVG 20010904//EN"
 "http://www.w3.org/TR/2001/REC-SVG-20010904/DTD/svg10.dtd">
<svg version="1.0" xmlns="http://www.w3.org/2000/svg"
 width="1200.000000pt" height="1200.000000pt" viewBox="0 0 1200.000000 1200.000000"
 preserveAspectRatio="xMidYMid meet">
<metadata>
Created by potrace 1.14, written by Peter Selinger 2001-2017
</metadata>
<g transform="translate(0.000000,1200.000000) scale(0.100000,-0.100000)"
fill="#000000" stroke="none">
<path d="M1643 9034 c3 -3 2 -17 -3 -30 -6 -14 -21 -66 -34 -117 -13 -50 -41
-153 -61 -227 -20 -74 -38 -142 -40 -151 -2 -9 -12 -47 -24 -85 -19 -68 -83
-303 -94 -349 -1 -5 -6 -16 -10 -22 -5 -7 -6 -13 -3 -13 2 0 0 -15 -6 -32 -9
-32 -25 -87 -32 -118 -2 -8 -16 -58 -30 -110 -15 -52 -29 -102 -31 -110 -3
-15 -9 -37 -66 -245 -40 -146 -38 -142 -44 -166 -2 -12 -9 -36 -14 -53 -6 -17
-22 -74 -35 -126 -14 -52 -34 -129 -46 -170 -11 -41 -22 -82 -24 -90 -2 -8
-11 -42 -20 -75 -9 -33 -19 -67 -21 -75 -2 -8 -34 -125 -70 -260 -37 -135 -68
-252 -70 -260 -2 -8 -45 -166 -95 -350 -51 -184 -93 -342 -95 -350 -3 -13 -56
-205 -150 -550 -14 -52 -27 -102 -30 -110 -2 -8 -15 -58 -29 -110 -14 -52 -26
-98 -26 -101 0 -7 396 -6 403 1 3 3 19 57 37 120 17 63 33 120 34 125 2 6 6
24 10 40 4 17 14 53 22 80 23 84 85 309 89 327 2 10 16 62 30 115 15 54 29
105 31 113 1 8 17 65 34 125 17 61 33 117 34 125 2 8 11 42 20 75 9 33 18 67
20 75 2 8 10 35 17 60 7 25 13 50 15 55 1 6 36 136 78 290 86 312 115 421 121
449 3 10 12 44 21 75 9 31 18 63 20 71 2 8 11 42 20 75 9 33 18 67 20 75 4 18
16 61 44 160 11 41 23 86 26 100 2 14 9 36 14 50 5 14 12 36 14 50 3 14 26 99
51 190 25 91 47 174 50 185 2 11 29 110 60 220 30 110 57 209 60 220 2 11 27
103 55 205 28 102 52 192 54 200 3 13 564 15 4971 18 2733 1 4972 5 4976 10 6
5 57 178 73 247 3 12 25 93 32 118 5 16 -246 17 -5177 17 -2850 0 -5180 -3
-5176 -6z"/>
<path d="M5638 7436 c-1 -2 -46 -6 -98 -10 -102 -7 -126 -10 -150 -19 -8 -3
-33 -11 -55 -18 -141 -42 -310 -163 -402 -286 -15 -21 -30 -40 -33 -43 -5 -5
-16 -24 -49 -84 -56 -102 -85 -235 -85 -386 1 -157 20 -243 85 -375 46 -96 70
-127 170 -225 104 -102 232 -176 364 -209 141 -35 332 -34 460 1 22 6 46 12
53 14 7 1 41 16 76 32 232 109 414 326 466 557 67 296 -6 577 -204 783 -145
152 -317 237 -521 258 -27 3 -55 7 -62 9 -6 2 -13 2 -15 1z m83 -370 c4 2 10
0 14 -6 3 -5 15 -10 26 -10 35 0 136 -58 186 -107 60 -58 99 -123 123 -203 23
-78 21 -241 -5 -315 -19 -56 -79 -151 -110 -176 -11 -9 -31 -27 -45 -39 -123
-109 -381 -127 -537 -38 -123 70 -214 203 -230 338 -30 250 85 454 301 535 57
21 186 34 235 23 19 -4 38 -5 42 -2z"/>
<path d="M2834 7395 c-2 -5 16 -71 41 -145 25 -74 48 -143 50 -154 5 -23 43
-134 54 -161 5 -11 27 -81 50 -155 23 -74 46 -142 51 -151 7 -13 22 -62 36
-114 1 -5 29 -89 62 -185 32 -96 60 -179 62 -185 1 -5 4 -14 6 -20 2 -5 28
-84 58 -175 l54 -165 232 0 c127 0 236 2 240 5 6 4 54 136 66 185 5 19 115
350 124 370 8 22 61 183 65 200 1 5 7 23 13 38 7 16 12 32 12 37 0 5 5 21 12
37 6 15 12 33 13 38 2 6 10 33 20 60 9 28 18 57 20 65 2 8 10 31 18 50 8 19
15 38 15 43 0 4 35 113 78 242 43 129 75 237 72 240 -10 10 -389 8 -398 -2 -4
-4 -20 -48 -35 -98 -33 -113 -84 -279 -126 -415 -19 -58 -34 -107 -34 -110 -1
-3 -7 -25 -15 -50 -7 -25 -15 -49 -16 -55 -8 -34 -135 -439 -138 -442 -2 -3
-24 64 -32 97 0 3 -3 12 -7 20 -7 18 -49 160 -51 175 -1 6 -5 15 -8 21 -4 6
-9 21 -12 35 -3 13 -25 89 -51 169 -25 80 -48 154 -50 166 -3 11 -14 50 -26
85 -11 35 -22 71 -24 79 -2 8 -14 51 -28 95 -14 44 -36 113 -48 153 -12 41
-27 76 -35 79 -26 10 -386 8 -390 -2z"/>
<path d="M6903 7402 c-24 -2 -43 -4 -43 -5 0 -1 5 -18 11 -37 6 -19 12 -44 14
-55 2 -11 9 -33 15 -50 11 -31 71 -246 116 -415 14 -52 28 -98 31 -102 2 -5 6
-21 9 -36 3 -15 11 -47 18 -72 33 -111 37 -126 41 -145 2 -11 4 -20 5 -20 1 0
3 -7 5 -15 2 -8 22 -80 45 -160 23 -80 43 -152 45 -160 2 -8 9 -35 16 -60 15
-54 12 -43 45 -165 15 -55 31 -104 36 -110 5 -5 95 -10 217 -10 l209 0 33 120
c18 66 34 122 34 125 1 3 7 25 14 50 7 25 15 53 16 62 2 10 6 22 9 26 3 5 7
19 10 33 3 13 12 49 21 79 9 30 18 65 21 78 2 13 11 42 18 65 8 23 29 96 46
162 35 128 48 163 51 133 2 -23 2 -22 22 -88 9 -30 23 -80 31 -110 8 -30 52
-185 96 -345 45 -159 87 -310 93 -335 6 -25 12 -47 14 -50 2 -2 100 -4 217 -5
l214 0 12 54 c7 30 20 79 30 110 10 31 36 126 60 211 23 85 48 174 56 197 7
23 16 52 18 65 6 25 8 33 56 208 18 63 36 129 40 145 4 17 19 69 34 116 14 47
27 97 30 110 3 13 14 56 26 94 12 39 23 77 24 85 3 12 23 84 31 110 1 3 5 19
9 35 4 17 11 40 16 53 8 19 6 22 -13 23 -67 2 -370 -1 -373 -3 -2 -3 -182
-713 -200 -790 -2 -10 -6 -26 -8 -36 -2 -9 -9 -37 -16 -62 -7 -25 -14 -53 -16
-62 -2 -10 -6 -26 -8 -36 -2 -9 -9 -37 -16 -62 -7 -25 -13 -51 -13 -57 0 -7
-2 -13 -4 -13 -5 0 -22 46 -27 73 -2 12 -16 65 -31 117 -15 52 -29 102 -31
110 -2 8 -19 71 -39 140 -38 130 -39 133 -54 190 -23 87 -53 195 -86 310 -19
69 -37 133 -38 143 -2 9 -8 22 -13 27 -9 9 -172 15 -280 11 -21 -1 -32 -28
-68 -161 -8 -30 -26 -93 -39 -140 -26 -90 -98 -348 -101 -365 -1 -5 -10 -37
-20 -70 -10 -33 -20 -67 -21 -75 -2 -8 -16 -55 -30 -105 -14 -49 -27 -97 -29
-105 -13 -53 -28 -101 -31 -99 -2 2 -65 252 -141 554 -75 303 -140 554 -145
559 -7 8 -261 14 -346 8z"/>
<path d="M11211 7400 l-64 -5 -13 -45 c-8 -25 -16 -54 -19 -65 -5 -24 -57
-218 -78 -295 -31 -109 -98 -355 -102 -370 -2 -8 -13 -51 -25 -95 -12 -44 -30
-111 -40 -150 -10 -38 -37 -137 -60 -220 -23 -82 -43 -157 -45 -165 -1 -8 -8
-35 -15 -60 -7 -25 -11 -45 -10 -45 1 0 -4 -13 -10 -30 -7 -16 -14 -39 -16
-50 -2 -10 -20 -78 -40 -149 -20 -72 -38 -137 -39 -146 -2 -8 -11 -40 -19 -70
-29 -105 -78 -286 -107 -395 -17 -60 -35 -126 -40 -145 -5 -19 -11 -43 -14
-52 -2 -9 -13 -52 -26 -95 -12 -43 -23 -85 -24 -93 -2 -8 -4 -15 -5 -15 -1 0
-3 -7 -5 -15 -1 -8 -10 -42 -19 -75 -10 -33 -28 -100 -41 -150 -13 -49 -28
-104 -33 -122 -6 -17 -8 -34 -4 -37 3 -3 1 -6 -4 -6 -5 0 -10 -8 -11 -17 -1
-10 -34 -135 -73 -278 -39 -143 -73 -268 -76 -277 -2 -10 -6 -26 -8 -35 -5
-22 -65 -242 -72 -265 -5 -17 -251 -18 -4974 -18 -2733 0 -4971 -4 -4974 -8
-4 -7 -59 -201 -70 -247 -3 -12 -25 -93 -32 -118 -5 -16 244 -17 5172 -15
l5178 3 43 160 c24 88 45 167 47 175 2 8 21 76 41 150 20 74 49 182 65 240 15
58 75 281 134 496 59 216 109 400 111 410 2 11 15 60 29 109 14 50 26 91 26
93 0 1 0 3 1 5 0 1 2 9 4 17 2 8 31 114 65 235 34 121 63 229 64 240 2 11 4
20 5 20 2 0 4 7 6 15 1 9 13 51 25 95 12 44 23 87 25 95 15 58 39 145 56 200
10 36 21 74 23 85 2 11 9 40 16 65 7 25 13 50 15 55 1 6 5 17 8 25 5 13 80
293 92 343 2 9 17 65 34 125 16 59 33 121 37 137 4 17 8 35 10 40 15 54 65
235 69 251 3 11 30 112 61 225 31 112 58 211 59 219 2 8 4 15 5 15 2 0 5 12
15 63 6 27 5 32 -11 33 -134 4 -214 3 -214 -3 0 -4 -10 -4 -22 0 -13 4 -52 5
-87 2z"/>
<path d="M3011 4961 c-5 -9 -12 -29 -16 -46 -4 -16 -9 -37 -11 -45 -2 -8 -19
-71 -37 -140 -19 -69 -36 -132 -38 -140 -4 -13 73 -15 633 -16 l636 0 12 40
c6 21 14 48 16 58 7 31 12 51 35 128 11 41 27 98 33 126 l13 51 -634 0 c-570
0 -635 -2 -642 -16z"/>
<path d="M4995 4916 c-10 -34 -19 -68 -20 -76 -2 -8 -4 -15 -5 -15 -1 0 -3 -7
-5 -15 -8 -30 -24 -92 -48 -177 -9 -29 -14 -54 -14 -55 6 -4 1309 -3 1312 2 2
3 24 82 50 175 25 94 50 180 55 193 5 12 6 23 2 24 -4 1 -300 2 -659 3 l-651
2 -17 -61z"/>
<path d="M7034 4921 c-9 -31 -25 -87 -36 -125 -19 -66 -23 -83 -34 -133 -2
-12 -9 -34 -14 -48 -6 -15 -10 -30 -10 -34 0 -4 453 -7 1007 -7 l1007 1 23 75
c13 41 25 84 27 95 2 11 16 61 30 112 14 51 26 98 26 106 0 12 -154 14 -1005
14 l-1005 0 -16 -56z"/>
</g>
</svg>
