<svg width="38" height="38" viewBox="0 0 38 38" fill="none" xmlns="http://www.w3.org/2000/svg">
<g clip-path="url(#clip0_2059_12781)">
<path d="M26.1904 0.356568C26.1111 0.267929 23.2537 0.391557 20.7671 3.09036C18.2806 5.78684 18.6631 8.87985 18.7191 8.95916C18.7751 9.03847 22.2647 9.16209 24.4923 6.02476C26.7199 2.88743 26.2697 0.447539 26.1904 0.356568ZM33.9206 27.7248C33.8086 27.5009 28.4973 24.8464 28.9918 19.7427C29.4864 14.6367 32.8989 13.2371 32.9526 13.0855C33.0062 12.9339 31.56 11.2428 30.0275 10.3867C28.9023 9.78315 27.657 9.43736 26.3817 9.37436C26.1298 9.36736 25.255 9.15276 23.4566 9.64494C22.2717 9.96917 19.6008 11.0188 18.8661 11.0608C18.129 11.1028 15.9363 9.84321 13.5781 9.50965C12.0689 9.21808 10.4688 9.81522 9.32345 10.2747C8.18048 10.7319 6.00651 12.0335 4.48566 15.4927C2.96481 18.9496 3.76022 24.4266 4.32938 26.1294C4.89853 27.8298 5.78724 30.6173 7.29876 32.6513C8.64233 34.9465 10.4244 36.5397 11.1685 37.0809C11.9126 37.622 14.012 37.9812 15.4675 37.2371C16.6384 36.5187 18.7518 36.1058 19.5868 36.1362C20.4196 36.1665 22.0617 36.4954 23.7435 37.3934C25.0754 37.8529 26.335 37.6617 27.597 37.1485C28.8589 36.633 30.6853 34.6783 32.8173 30.7152C33.6267 28.8725 33.9953 27.8765 33.9206 27.7248Z" fill="#252D38"/>
<path d="M26.1904 0.356568C26.1111 0.267929 23.2537 0.391557 20.7671 3.09036C18.2806 5.78684 18.6631 8.87985 18.7191 8.95916C18.7751 9.03847 22.2647 9.16209 24.4923 6.02476C26.7199 2.88743 26.2697 0.447539 26.1904 0.356568ZM33.9206 27.7248C33.8086 27.5009 28.4973 24.8464 28.9918 19.7427C29.4864 14.6367 32.8989 13.2371 32.9526 13.0855C33.0062 12.9339 31.56 11.2428 30.0275 10.3867C28.9023 9.78315 27.657 9.43736 26.3817 9.37436C26.1298 9.36736 25.255 9.15276 23.4566 9.64494C22.2717 9.96917 19.6008 11.0188 18.8661 11.0608C18.129 11.1028 15.9363 9.84321 13.5781 9.50965C12.0689 9.21808 10.4688 9.81522 9.32345 10.2747C8.18048 10.7319 6.00651 12.0335 4.48566 15.4927C2.96481 18.9496 3.76022 24.4266 4.32938 26.1294C4.89853 27.8298 5.78724 30.6173 7.29876 32.6513C8.64233 34.9465 10.4244 36.5397 11.1685 37.0809C11.9126 37.622 14.012 37.9812 15.4675 37.2371C16.6384 36.5187 18.7518 36.1058 19.5868 36.1362C20.4196 36.1665 22.0617 36.4954 23.7435 37.3934C25.0754 37.8529 26.335 37.6617 27.597 37.1485C28.8589 36.633 30.6853 34.6783 32.8173 30.7152C33.6267 28.8725 33.9953 27.8765 33.9206 27.7248Z" fill="#252D38"/>
</g>
<defs>
<clipPath id="clip0_2059_12781">
<rect width="37.3214" height="37.3214" fill="white" transform="translate(0.107422 0.339844)"/>
</clipPath>
</defs>
</svg>
