<svg width="46" height="46" viewBox="0 0 46 46" fill="none" xmlns="http://www.w3.org/2000/svg">
<path d="M44.5858 42.4604C45.3668 41.6793 45.3668 40.413 44.5858 39.6319L15.445 10.4911C14.185 9.2312 15.0774 7.07692 16.8592 7.07692L40.4615 7.07692C41.5661 7.07692 42.4615 6.18149 42.4615 5.07692L42.4615 2C42.4615 0.89543 41.5661 -1.81691e-06 40.4615 -1.76863e-06L2 -8.74227e-08C0.89543 -3.91405e-08 3.91405e-08 0.895431 8.74228e-08 2L1.76863e-06 40.4615C1.81691e-06 41.5661 0.895432 42.4615 2 42.4615L5.07692 42.4615C6.18149 42.4615 7.07692 41.5661 7.07692 40.4615L7.07692 16.8592C7.07692 15.0774 9.23121 14.1851 10.4911 15.445L39.6319 44.5858C40.413 45.3668 41.6793 45.3668 42.4604 44.5858L44.5858 42.4604Z" fill="#343132"/>
</svg>
