<svg width="52" height="52" viewBox="0 0 52 52" fill="none" xmlns="http://www.w3.org/2000/svg">
<path d="M3.35356 41.5713C1.98672 42.9381 1.98672 45.1542 3.35355 46.521L5.47897 48.6465C6.84581 50.0133 9.06188 50.0133 10.4287 48.6465L39.5695 19.5056C39.8845 19.1907 40.4231 19.4137 40.4231 19.8592L40.4231 43.4615C40.4231 45.3945 41.9901 46.9615 43.9231 46.9615L47 46.9615C48.933 46.9615 50.5 45.3945 50.5 43.4615L50.5 5C50.5 3.067 48.933 1.5 47 1.5L8.53847 1.5C6.60547 1.5 5.03847 3.06701 5.03847 5L5.03847 8.07692C5.03847 10.0099 6.60546 11.5769 8.53846 11.5769L32.1408 11.5769C32.5863 11.5769 32.8093 12.1155 32.4944 12.4305L3.35356 41.5713Z" fill="#343132" stroke="#31E716" stroke-width="3"/>
</svg>
