<svg width="30" height="30" viewBox="0 0 30 30" fill="none" xmlns="http://www.w3.org/2000/svg">
<path fill-rule="evenodd" clip-rule="evenodd" d="M0.147461 15.0904C0.147461 6.97929 6.72245 0.404297 14.8336 0.404297C22.9447 0.404297 29.5197 6.97929 29.5197 15.0904C29.5197 23.2015 22.9447 29.7765 14.8336 29.7765C6.72245 29.7765 0.147461 23.2015 0.147461 15.0904ZM14.8336 3.0745C8.19717 3.0745 2.81766 8.454 2.81766 15.0904C2.81766 21.7268 8.19717 27.1063 14.8336 27.1063C21.47 27.1063 26.8495 21.7268 26.8495 15.0904C26.8495 8.454 21.47 3.0745 14.8336 3.0745Z" fill="#455154"/>
<path fill-rule="evenodd" clip-rule="evenodd" d="M5.89672 24.557C5.46385 25.1482 4.63423 25.2804 4.0388 24.8511C3.44068 24.4199 3.30537 23.5855 3.73658 22.9874L4.81957 23.7681C3.73658 22.9874 3.73703 22.9867 3.7375 22.9861L3.7385 22.9847L3.7407 22.9817L3.74595 22.9745L3.75981 22.9558C3.77055 22.9415 3.78431 22.9234 3.80113 22.9019C3.83478 22.8588 3.88071 22.8016 3.9393 22.7325C4.05643 22.5944 4.22443 22.4081 4.44622 22.1901C4.88965 21.7543 5.54984 21.19 6.44968 20.6313C8.25919 19.5076 11.0043 18.4277 14.8322 18.4277C18.6601 18.4277 21.4055 19.5076 23.2152 20.6312C24.1152 21.19 24.7755 21.7542 25.2191 22.19C25.4409 22.408 25.609 22.5942 25.7261 22.7323C25.7847 22.8014 25.8307 22.8585 25.8643 22.9017C25.8812 22.9232 25.8949 22.9413 25.9057 22.9556L25.9195 22.9743L25.9248 22.9814L25.927 22.9845L25.928 22.9858C25.9285 22.9865 25.9289 22.9871 24.8954 23.7325L25.9289 22.9871C26.3603 23.5852 26.2251 24.4196 25.6271 24.851C25.0317 25.2804 24.2021 25.1484 23.7691 24.5572L23.7595 24.5447C23.7473 24.5291 23.7242 24.5002 23.6899 24.4597C23.6213 24.3788 23.508 24.2522 23.3477 24.0946C23.0269 23.7795 22.5197 23.3423 21.8068 22.8998C20.3909 22.0207 18.1293 21.0979 14.8322 21.0979C11.5351 21.0979 9.27385 22.0207 7.8583 22.8997C7.14562 23.3423 6.6386 23.7793 6.31796 24.0945C6.15771 24.252 6.04445 24.3786 5.97583 24.4595C5.94155 24.5 5.91849 24.5289 5.90635 24.5444L5.89672 24.557ZM23.7641 24.5503C23.7641 24.5503 23.7641 24.5503 23.7641 24.5503L23.7643 24.5506C23.7642 24.5505 23.7642 24.5504 23.7641 24.5503Z" fill="#455154"/>
<path fill-rule="evenodd" clip-rule="evenodd" d="M11.0568 7.30831C12.0584 6.30679 13.4167 5.74414 14.8331 5.74414C16.2494 5.74414 17.6078 6.30679 18.6093 7.30831C19.6108 8.30983 20.1735 9.66818 20.1735 11.0845C20.1735 12.5009 19.6108 13.8593 18.6093 14.8608C17.6078 15.8623 16.2494 16.4249 14.8331 16.4249C13.4167 16.4249 12.0584 15.8623 11.0568 14.8608C10.0553 13.8593 9.49268 12.5009 9.49268 11.0845C9.49268 9.66818 10.0553 8.30983 11.0568 7.30831ZM14.8331 13.7547C15.5413 13.7547 16.2204 13.4734 16.7212 12.9727C17.222 12.4719 17.5033 11.7927 17.5033 11.0845C17.5033 10.3764 17.222 9.69719 16.7212 9.19643C16.2204 8.69567 15.5413 8.41434 14.8331 8.41434C14.1249 8.41434 13.4457 8.69567 12.945 9.19643C12.4442 9.69719 12.1629 10.3764 12.1629 11.0845C12.1629 11.7927 12.4442 12.4719 12.945 12.9727C13.4457 13.4734 14.1249 13.7547 14.8331 13.7547Z" fill="#455154"/>
</svg>
