<svg width="31" height="25" viewBox="0 0 31 25" fill="none" xmlns="http://www.w3.org/2000/svg">
<path d="M29.6268 0.404297H1.76967C1.17704 0.404297 0.698242 0.891797 0.698242 1.49521V6.94975H30.6982V1.49521C30.6982 0.891797 30.2194 0.404297 29.6268 0.404297ZM0.698242 23.3134C0.698242 23.9168 1.17704 24.4043 1.76967 24.4043H29.6268C30.2194 24.4043 30.6982 23.9168 30.6982 23.3134V9.94975H0.698242V23.3134ZM20.0844 17.0407C20.0844 16.8907 20.2049 16.7679 20.3523 16.7679H25.8768C26.0241 16.7679 26.1447 16.8907 26.1447 17.0407V19.4952C26.1447 19.6452 26.0241 19.7679 25.8768 19.7679H20.3523C20.2049 19.7679 20.0844 19.6452 20.0844 19.4952V17.0407Z" fill="#455154"/>
</svg>
