<svg width="24" height="28" viewBox="0 0 24 28" fill="none" xmlns="http://www.w3.org/2000/svg">
<path d="M22.4453 12.1532H20.1756V4.67662C20.1756 2.31683 18.2631 0.404297 15.9033 0.404297H7.6257C5.26591 0.404297 3.35338 2.31683 3.35338 4.67662V12.1532H1.08371C0.492924 12.1532 0.015625 12.6305 0.015625 13.2213V26.0382C0.015625 26.629 0.492924 27.1063 1.08371 27.1063H22.4453C23.0361 27.1063 23.5134 26.629 23.5134 26.0382V13.2213C23.5134 12.6305 23.0361 12.1532 22.4453 12.1532ZM12.6991 20.0637V21.8327C12.6991 21.9795 12.5789 22.0997 12.4321 22.0997H11.097C10.9501 22.0997 10.8299 21.9795 10.8299 21.8327V20.0637C10.5544 19.8658 10.3488 19.5857 10.2426 19.2636C10.1364 18.9415 10.1352 18.5939 10.2391 18.2711C10.343 17.9482 10.5467 17.6666 10.8208 17.4669C11.0949 17.2671 11.4253 17.1595 11.7645 17.1595C12.1037 17.1595 12.4341 17.2671 12.7082 17.4669C12.9824 17.6666 13.186 17.9482 13.2899 18.2711C13.3938 18.5939 13.3926 18.9415 13.2864 19.2636C13.1803 19.5857 12.9746 19.8658 12.6991 20.0637ZM17.7725 12.1532H5.75656V4.67662C5.75656 3.64525 6.59434 2.80748 7.6257 2.80748H15.9033C16.9347 2.80748 17.7725 3.64525 17.7725 4.67662V12.1532Z" fill="#455154"/>
</svg>
