<svg width="30" height="28" viewBox="0 0 30 28" fill="none" xmlns="http://www.w3.org/2000/svg">
<path d="M0.482422 23.101C0.482422 25.3707 2.39162 27.1063 4.88826 27.1063H25.4488C27.9455 27.1063 29.8546 25.3707 29.8546 23.101V12.4202H0.482422V23.101ZM25.4488 3.0745H22.5116V1.7394C22.5116 0.938337 21.9241 0.404297 21.043 0.404297C20.1618 0.404297 19.5744 0.938337 19.5744 1.7394V3.0745H10.7627V1.7394C10.7627 0.938337 10.1753 0.404297 9.29409 0.404297C8.41292 0.404297 7.82548 0.938337 7.82548 1.7394V3.0745H4.88826C2.39162 3.0745 0.482422 4.81013 0.482422 7.0798V9.75H29.8546V7.0798C29.8546 4.81013 27.9455 3.0745 25.4488 3.0745Z" fill="#455154"/>
</svg>
