<svg width="38" height="38" viewBox="0 0 38 38" fill="none" xmlns="http://www.w3.org/2000/svg">
<g clip-path="url(#clip0_2059_12787)">
<path d="M37.714 19.0006C37.714 8.6946 29.3593 0.339844 19.0533 0.339844C8.74733 0.339844 0.392578 8.69445 0.392578 19.0006C0.392578 28.3146 7.21657 36.0347 16.1376 37.4346V24.3947H11.3995V19.0006H16.1376V14.8894C16.1376 10.2125 18.9235 7.62919 23.1859 7.62919C25.2277 7.62919 27.3631 7.99365 27.3631 7.99365V12.5859H25.0101C22.6918 12.5859 21.969 14.0244 21.969 15.5002V19.0006H27.1445L26.3171 24.3947H21.969V37.4346C30.89 36.0347 37.714 28.3147 37.714 19.0006Z" fill="#1877F2"/>
<path d="M26.3171 24.3944L27.1444 19.0003H21.969V15.4999C21.969 14.024 22.6919 12.5857 25.0101 12.5857H27.3631V7.99337C27.3631 7.99337 25.2276 7.62891 23.1858 7.62891C18.9235 7.62891 16.1375 10.2122 16.1375 14.8891V19.0003H11.3994V24.3944H16.1375V37.4343C17.102 37.5855 18.0769 37.6613 19.0532 37.661C20.0296 37.6613 21.0044 37.5855 21.969 37.4343V24.3944H26.3171Z" fill="white"/>
</g>
<defs>
<clipPath id="clip0_2059_12787">
<rect width="37.3214" height="37.3214" fill="white" transform="translate(0.392578 0.339844)"/>
</clipPath>
</defs>
</svg>
