<svg width="38" height="38" viewBox="0 0 38 38" fill="none" xmlns="http://www.w3.org/2000/svg">
<path d="M35.7404 15.3425L20.5902 15.3418C19.9212 15.3418 19.3789 15.884 19.3789 16.553V21.3928C19.3789 22.0617 19.9212 22.604 20.5901 22.604H29.1218C28.1876 25.0285 26.4439 27.059 24.2192 28.3491L27.8571 34.6467C33.6928 31.2717 37.1428 25.3499 37.1428 18.7209C37.1428 17.777 37.0733 17.1023 36.9341 16.3426C36.8284 15.7653 36.3272 15.3425 35.7404 15.3425Z" fill="#167EE6"/>
<path d="M18.5712 29.8757C14.396 29.8757 10.751 27.5945 8.79341 24.2188L2.49609 27.8485C5.70075 33.4026 11.7041 37.1428 18.5712 37.1428C21.9399 37.1428 25.1186 36.2358 27.8569 34.6551V34.6465L24.219 28.3489C22.555 29.314 20.6294 29.8757 18.5712 29.8757Z" fill="#12B347"/>
<path d="M27.857 34.6558V34.6472L24.2191 28.3496C22.5551 29.3147 20.6296 29.8765 18.5713 29.8765V37.1435C21.94 37.1435 25.1189 36.2365 27.857 34.6558Z" fill="#0F993E"/>
<path d="M7.26709 18.5701C7.26709 16.512 7.82873 14.5866 8.79365 12.9227L2.49633 9.29297C0.906953 12.0226 0 15.1927 0 18.5701C0 21.9474 0.906953 25.1175 2.49633 27.8471L8.79365 24.2174C7.82873 22.5535 7.26709 20.6281 7.26709 18.5701Z" fill="#FFD500"/>
<path d="M18.5712 7.26709C21.2939 7.26709 23.7948 8.23454 25.7482 9.8438C26.2301 10.2408 26.9305 10.2121 27.3719 9.77068L30.8011 6.34149C31.302 5.84064 31.2663 5.02082 30.7313 4.55667C27.4584 1.71735 23.2 0 18.5712 0C11.7041 0 5.70075 3.74019 2.49609 9.29435L8.7934 12.924C10.751 9.54833 14.396 7.26709 18.5712 7.26709Z" fill="#FF4B26"/>
<path d="M25.7483 9.8438C26.2302 10.2408 26.9307 10.2121 27.372 9.77068L30.8012 6.34149C31.302 5.84064 31.2663 5.02082 30.7314 4.55668C27.4585 1.71728 23.2001 0 18.5713 0V7.26709C21.2939 7.26709 23.7949 8.23454 25.7483 9.8438Z" fill="#D93F21"/>
</svg>
