<svg width="38" height="38" viewBox="0 0 38 38" fill="none" xmlns="http://www.w3.org/2000/svg">
<path d="M35.7404 15.6804L20.5902 15.6797C19.9212 15.6797 19.3789 16.2219 19.3789 16.8909V21.7307C19.3789 22.3996 19.9212 22.9419 20.5901 22.9419H29.1218C28.1876 25.3664 26.4439 27.3969 24.2192 28.687L27.8571 34.9845C33.6928 31.6096 37.1428 25.6878 37.1428 19.0588C37.1428 18.1149 37.0733 17.4402 36.9341 16.6804C36.8284 16.1032 36.3272 15.6804 35.7404 15.6804Z" fill="#167EE6"/>
<path d="M18.5712 30.2136C14.396 30.2136 10.751 27.9324 8.79341 24.5566L2.49609 28.1863C5.70075 33.7405 11.7041 37.4807 18.5712 37.4807C21.9399 37.4807 25.1186 36.5737 27.8569 34.993V34.9844L24.219 28.6868C22.555 29.6519 20.6294 30.2136 18.5712 30.2136Z" fill="#12B347"/>
<path d="M27.857 34.9937V34.9851L24.2191 28.6875C22.5551 29.6526 20.6296 30.2143 18.5713 30.2143V37.4814C21.94 37.4814 25.1189 36.5744 27.857 34.9937Z" fill="#0F993E"/>
<path d="M7.26709 18.9079C7.26709 16.8499 7.82873 14.9245 8.79365 13.2606L2.49633 9.63086C0.906953 12.3605 0 15.5306 0 18.9079C0 22.2853 0.906953 25.4554 2.49633 28.185L8.79365 24.5553C7.82873 22.8914 7.26709 20.966 7.26709 18.9079Z" fill="#FFD500"/>
<path d="M18.5712 7.60498C21.2939 7.60498 23.7948 8.57243 25.7482 10.1817C26.2301 10.5787 26.9305 10.55 27.3719 10.1086L30.8011 6.67938C31.302 6.17853 31.2663 5.35871 30.7313 4.89457C27.4584 2.05524 23.2 0.337891 18.5712 0.337891C11.7041 0.337891 5.70075 4.07808 2.49609 9.63224L8.7934 13.2619C10.751 9.88622 14.396 7.60498 18.5712 7.60498Z" fill="#FF4B26"/>
<path d="M25.7483 10.1817C26.2302 10.5787 26.9307 10.55 27.372 10.1086L30.8012 6.67938C31.302 6.17853 31.2663 5.35871 30.7314 4.89457C27.4585 2.05517 23.2001 0.337891 18.5713 0.337891V7.60498C21.2939 7.60498 23.7949 8.57244 25.7483 10.1817Z" fill="#D93F21"/>
</svg>
