<svg width="19" height="19" viewBox="0 0 19 19" fill="none" xmlns="http://www.w3.org/2000/svg">
<path d="M10 2C8.41775 2 6.87103 2.46919 5.55544 3.34824C4.23985 4.22729 3.21447 5.47672 2.60897 6.93853C2.00347 8.40034 1.84504 10.0089 2.15372 11.5607C2.4624 13.1126 3.22433 14.538 4.34315 15.6569C5.46197 16.7757 6.88743 17.5376 8.43928 17.8463C9.99113 18.155 11.5997 17.9965 13.0615 17.391C14.5233 16.7855 15.7727 15.7602 16.6518 14.4446C17.5308 13.129 18 11.5822 18 10C17.9978 7.87895 17.1542 5.84542 15.6544 4.34562C14.1546 2.84581 12.121 2.00224 10 2ZM13.9677 6.44538L11.5062 11.3685C11.476 11.4278 11.4278 11.476 11.3685 11.5062L6.44539 13.9677C6.38759 13.9967 6.32211 14.0068 6.25826 13.9965C6.1944 13.9862 6.13542 13.9561 6.08968 13.9103C6.04395 13.8646 6.01379 13.8056 6.00349 13.7417C5.99319 13.6779 6.00327 13.6124 6.03231 13.5546L8.49385 8.63154C8.52399 8.5722 8.57221 8.52398 8.63154 8.49384L13.5546 6.03231C13.6124 6.00327 13.6779 5.99318 13.7417 6.00348C13.8056 6.01378 13.8646 6.04394 13.9103 6.08968C13.9561 6.13541 13.9862 6.1944 13.9965 6.25826C14.0068 6.32211 13.9967 6.38759 13.9677 6.44538Z" fill="#343132"/>
</svg>
