<svg width="19" height="19" viewBox="0 0 19 19" fill="none" xmlns="http://www.w3.org/2000/svg">
<path d="M9.49967 17.4173C13.8538 17.4173 17.4163 13.8548 17.4163 9.50065C17.4163 5.14648 13.8538 1.58398 9.49967 1.58398C5.14551 1.58398 1.58301 5.14648 1.58301 9.50065C1.58301 13.8548 5.14551 17.4173 9.49967 17.4173ZM9.73717 5.7719C9.89551 5.6294 10.0855 5.54232 10.2913 5.54232C10.5051 5.54232 10.6872 5.6294 10.8534 5.7719C11.0038 5.93815 11.083 6.12815 11.083 6.33398C11.083 6.54773 11.0038 6.72982 10.8534 6.89607C10.6872 7.04648 10.5051 7.12565 10.2913 7.12565C10.0855 7.12565 9.89551 7.04648 9.73717 6.89607C9.58676 6.72982 9.49967 6.54773 9.49967 6.33398C9.49967 6.12815 9.58676 5.93815 9.73717 5.7719ZM7.75801 9.4769C7.75801 9.4769 9.47592 8.11523 10.1013 8.05982C10.6872 8.01232 10.5684 8.68523 10.513 9.03357L10.5051 9.08107C10.3943 9.50065 10.2597 10.0073 10.1251 10.4902C9.82426 11.5907 9.53134 12.6673 9.60259 12.8652C9.68176 13.1344 10.1726 12.794 10.5288 12.5565C10.5763 12.5248 10.6159 12.4932 10.6555 12.4694C10.6555 12.4694 10.7188 12.4061 10.7822 12.4932C10.798 12.5169 10.8138 12.5407 10.8297 12.5565C10.9009 12.6673 10.9405 12.7069 10.8455 12.7702L10.8138 12.7861C10.6397 12.9048 9.89551 13.4273 9.59467 13.6173C9.27009 13.8311 8.02717 14.5436 8.21717 13.1582C8.38342 12.1844 8.60509 11.3452 8.77926 10.6882C9.10384 9.50065 9.24634 8.96232 8.51801 9.4294C8.22509 9.60357 8.05092 9.7144 7.94801 9.78565C7.86092 9.84898 7.85301 9.84898 7.79759 9.74607L7.77384 9.69857L7.73426 9.63523C7.67884 9.55607 7.67884 9.54815 7.75801 9.4769Z" fill="#343132"/>
</svg>
