<svg width="39" height="40" viewBox="0 0 39 40" fill="none" xmlns="http://www.w3.org/2000/svg">
<path d="M19.7088 3.92383C24.0766 3.92383 24.6216 3.9399 26.3353 4.02028C28.0474 4.10066 29.2129 4.36913 30.2385 4.76782C31.2995 5.17614 32.1933 5.72916 33.0872 6.62137C33.9046 7.425 34.5371 8.3971 34.9407 9.47003C35.3378 10.4941 35.6079 11.6612 35.6883 13.3733C35.7638 15.087 35.7847 15.6319 35.7847 19.9998C35.7847 24.3676 35.7686 24.9126 35.6883 26.6263C35.6079 28.3384 35.3378 29.5039 34.9407 30.5295C34.5383 31.603 33.9056 32.5754 33.0872 33.3782C32.2833 34.1954 31.3113 34.8278 30.2385 35.2317C29.2145 35.6288 28.0474 35.8989 26.3353 35.9793C24.6216 36.0548 24.0766 36.0757 19.7088 36.0757C15.3409 36.0757 14.796 36.0597 13.0823 35.9793C11.3702 35.8989 10.2047 35.6288 9.17901 35.2317C8.10567 34.829 7.13339 34.1964 6.33036 33.3782C5.51274 32.5747 4.8802 31.6025 4.4768 30.5295C4.07812 29.5055 3.80965 28.3384 3.72927 26.6263C3.65371 24.9126 3.63281 24.3676 3.63281 19.9998C3.63281 15.6319 3.64889 15.087 3.72927 13.3733C3.80965 11.6596 4.07812 10.4957 4.4768 9.47003C4.87908 8.39645 5.51178 7.42408 6.33036 6.62137C7.13363 5.80348 8.10583 5.17089 9.17901 4.76782C10.2047 4.36913 11.3686 4.10066 13.0823 4.02028C14.796 3.94473 15.3409 3.92383 19.7088 3.92383ZM19.7088 11.9618C17.577 11.9618 15.5325 12.8087 14.0251 14.3161C12.5176 15.8235 11.6708 17.868 11.6708 19.9998C11.6708 22.1316 12.5176 24.1761 14.0251 25.6835C15.5325 27.1909 17.577 28.0378 19.7088 28.0378C21.8406 28.0378 23.8851 27.1909 25.3925 25.6835C26.8999 24.1761 27.7467 22.1316 27.7467 19.9998C27.7467 17.868 26.8999 15.8235 25.3925 14.3161C23.8851 12.8087 21.8406 11.9618 19.7088 11.9618ZM30.1581 11.5599C30.1581 11.027 29.9464 10.5158 29.5696 10.139C29.1927 9.76212 28.6816 9.55041 28.1486 9.55041C27.6157 9.55041 27.1046 9.76212 26.7277 10.139C26.3509 10.5158 26.1391 11.027 26.1391 11.5599C26.1391 12.0929 26.3509 12.604 26.7277 12.9808C27.1046 13.3577 27.6157 13.5694 28.1486 13.5694C28.6816 13.5694 29.1927 13.3577 29.5696 12.9808C29.9464 12.604 30.1581 12.0929 30.1581 11.5599ZM19.7088 15.177C20.9878 15.177 22.2145 15.6851 23.119 16.5896C24.0234 17.494 24.5315 18.7207 24.5315 19.9998C24.5315 21.2789 24.0234 22.5056 23.119 23.41C22.2145 24.3144 20.9878 24.8226 19.7088 24.8226C18.4297 24.8226 17.203 24.3144 16.2985 23.41C15.3941 22.5056 14.886 21.2789 14.886 19.9998C14.886 18.7207 15.3941 17.494 16.2985 16.5896C17.203 15.6851 18.4297 15.177 19.7088 15.177Z" fill="#343132"/>
</svg>
