<svg width="38" height="38" viewBox="0 0 38 38" fill="none" xmlns="http://www.w3.org/2000/svg">
<g clip-path="url(#clip0_2059_12785)">
<path d="M32.4783 32.14H26.9485V23.4798C26.9485 21.4147 26.9116 18.7563 24.0724 18.7563C21.1922 18.7563 20.7515 21.0064 20.7515 23.3295V32.1394H15.2218V14.3307H20.5304V16.7644H20.6047C21.136 15.856 21.9037 15.1087 22.826 14.6021C23.7484 14.0955 24.7909 13.8486 25.8425 13.8876C31.4473 13.8876 32.4807 17.5743 32.4807 22.3704L32.4783 32.14ZM8.98215 11.8965C7.20982 11.8968 5.77279 10.4602 5.7725 8.68784C5.77221 6.91551 7.20865 5.47849 8.98098 5.47819C10.7533 5.47776 12.1903 6.91434 12.1906 8.68667C12.1908 9.53778 11.8528 10.3541 11.2511 10.956C10.6494 11.558 9.83326 11.8963 8.98215 11.8965ZM11.7471 32.1401H6.21147V14.3307H11.747V32.14L11.7471 32.1401ZM35.2352 0.34256H3.43277C1.92971 0.325649 0.69708 1.5297 0.678711 3.03277V34.9678C0.696497 36.4716 1.92898 37.6768 3.43262 37.6611H35.2352C36.742 37.6797 37.9793 36.4745 38.0001 34.9678V3.03029C37.9787 1.52431 36.7413 0.3204 35.2352 0.340082" fill="#0A66C2"/>
</g>
<defs>
<clipPath id="clip0_2059_12785">
<rect width="37.3214" height="37.3214" fill="white" transform="translate(0.678711 0.339844)"/>
</clipPath>
</defs>
</svg>
