<svg width="24" height="24" viewBox="0 0 24 24" fill="none" xmlns="http://www.w3.org/2000/svg">
<path fill-rule="evenodd" clip-rule="evenodd" d="M3.5 9.568V14.432C3.5 16.726 3.5 17.872 4.222 18.585C4.877 19.232 5.896 19.291 7.818 19.297C7.717 18.622 7.696 17.817 7.69 16.869C7.69 16.7725 7.70902 16.677 7.74597 16.5879C7.78292 16.4988 7.83707 16.4178 7.90534 16.3496C7.9736 16.2815 8.05464 16.2274 8.1438 16.1906C8.23297 16.1538 8.32853 16.1349 8.425 16.135C8.52152 16.1338 8.61734 16.1516 8.70697 16.1875C8.7966 16.2233 8.87829 16.2765 8.94738 16.3439C9.01646 16.4113 9.0716 16.4917 9.10962 16.5804C9.14765 16.6691 9.16783 16.7645 9.169 16.861C9.175 17.925 9.202 18.679 9.309 19.251C9.412 19.803 9.576 20.121 9.816 20.359C10.089 20.629 10.472 20.804 11.196 20.899C11.94 20.999 12.926 21 14.341 21H15.326C16.741 21 17.727 20.998 18.472 20.9C19.195 20.804 19.578 20.628 19.85 20.359C20.123 20.089 20.301 19.711 20.398 18.997C20.498 18.263 20.5 17.288 20.5 15.892V8.108C20.5 6.711 20.498 5.738 20.398 5.002C20.301 4.289 20.123 3.91 19.851 3.642C19.578 3.372 19.195 3.196 18.471 3.1C17.727 3.002 16.741 3 15.326 3H14.341C12.926 3 11.94 3.002 11.195 3.1C10.472 3.196 10.089 3.372 9.816 3.641C9.576 3.878 9.412 4.197 9.309 4.749C9.202 5.321 9.175 6.075 9.169 7.139C9.16783 7.23552 9.14765 7.33087 9.10962 7.4196C9.0716 7.50832 9.01646 7.58869 8.94738 7.6561C8.87829 7.72352 8.7966 7.77667 8.70697 7.81251C8.61734 7.84835 8.52152 7.86619 8.425 7.865C8.32853 7.86513 8.23297 7.84624 8.1438 7.80941C8.05464 7.77259 7.9736 7.71854 7.90534 7.65037C7.83707 7.5822 7.78292 7.50124 7.74597 7.41212C7.70902 7.323 7.69 7.22747 7.69 7.131C7.696 6.183 7.717 5.378 7.818 4.703C5.896 4.709 4.878 4.768 4.222 5.415C3.5 6.128 3.5 7.275 3.5 9.568ZM5.934 12.516C5.86543 12.4487 5.81095 12.3684 5.77377 12.2798C5.73658 12.1912 5.71743 12.0961 5.71743 12C5.71743 11.9039 5.73658 11.8088 5.77377 11.7202C5.81095 11.6316 5.86543 11.5513 5.934 11.484L7.904 9.538C8.04352 9.40083 8.23134 9.32397 8.427 9.32397C8.62266 9.32397 8.81048 9.40083 8.95 9.538C9.01857 9.6053 9.07305 9.6856 9.11023 9.7742C9.14742 9.86279 9.16657 9.95792 9.16657 10.054C9.16657 10.1501 9.14742 10.2452 9.11023 10.3338C9.07305 10.4224 9.01857 10.5027 8.95 10.57L8.24 11.27H15.326C15.734 11.27 16.066 11.597 16.066 12C16.066 12.403 15.734 12.73 15.326 12.73H8.24L8.95 13.43C9.01857 13.4973 9.07305 13.5776 9.11023 13.6662C9.14742 13.7548 9.16657 13.8499 9.16657 13.946C9.16657 14.0421 9.14742 14.1372 9.11023 14.2258C9.07305 14.3144 9.01857 14.3947 8.95 14.462C8.81048 14.5992 8.62266 14.676 8.427 14.676C8.23134 14.676 8.04352 14.5992 7.904 14.462L5.934 12.516Z" fill="#343132"/>
</svg>
