<svg width="78" height="78" viewBox="0 0 78 78" fill="none" xmlns="http://www.w3.org/2000/svg">
<path d="M51.8375 70.1188C51.4042 70.1188 50.9979 70.0516 50.6188 69.9173C50.2396 69.7829 49.8875 69.5522 49.5625 69.225L40.3 59.9625C39.7042 59.3667 39.4063 58.6083 39.4063 57.6875C39.4063 56.7667 39.7042 56.0083 40.3 55.4125C40.8958 54.8167 41.6542 54.5188 42.575 54.5188C43.4958 54.5188 44.2542 54.8167 44.85 55.4125L51.8375 62.4L67.925 46.3125C68.5208 45.7167 69.2792 45.4188 70.2 45.4188C71.1208 45.4188 71.8792 45.7167 72.475 46.3125C73.0708 46.9083 73.3688 47.6667 73.3688 48.5875C73.3688 49.5083 73.0708 50.2667 72.475 50.8625L54.1125 69.225C53.7875 69.55 53.4354 69.7808 53.0563 69.9173C52.6771 70.0538 52.2708 70.1209 51.8375 70.1188ZM13 19.5L39 35.75L65 19.5H13ZM13 65C11.2125 65 9.68176 64.363 8.40776 63.089C7.13376 61.815 6.49784 60.2853 6.50001 58.5V19.5C6.50001 17.7125 7.13701 16.1818 8.41101 14.9078C9.68501 13.6338 11.2147 12.9978 13 13H65C66.7875 13 68.3183 13.637 69.5923 14.911C70.8663 16.185 71.5022 17.7147 71.5 19.5V33.6375L68.25 36.8875L65 40.1375V26L40.7063 41.1938C40.4354 41.3563 40.1505 41.4787 39.8515 41.561C39.5525 41.6433 39.2687 41.6834 39 41.6813C38.7292 41.6813 38.4443 41.6412 38.1453 41.561C37.8463 41.4808 37.5624 41.3584 37.2938 41.1938L13 26V58.5H29.7375L36.2375 65H13Z" fill="#343132"/>
</svg>
