<svg width="31" height="31" viewBox="0 0 31 31" fill="none" xmlns="http://www.w3.org/2000/svg">
<path d="M15.4998 5.16797C16.8701 5.16797 18.1843 5.71231 19.1532 6.68125C20.1222 7.65019 20.6665 8.96435 20.6665 10.3346C20.6665 11.7049 20.1222 13.0191 19.1532 13.988C18.1843 14.957 16.8701 15.5013 15.4998 15.5013C14.1296 15.5013 12.8154 14.957 11.8465 13.988C10.8775 13.0191 10.3332 11.7049 10.3332 10.3346C10.3332 8.96435 10.8775 7.65019 11.8465 6.68125C12.8154 5.71231 14.1296 5.16797 15.4998 5.16797ZM15.4998 18.0846C21.209 18.0846 25.8332 20.3967 25.8332 23.2513V25.8346H5.1665V23.2513C5.1665 20.3967 9.79067 18.0846 15.4998 18.0846Z" fill="#343132"/>
</svg>
