<svg width="24" height="24" viewBox="0 0 24 24" fill="none" xmlns="http://www.w3.org/2000/svg">
<path d="M4.875 3.75C3.97989 3.75 3.12145 4.10558 2.48851 4.73851C1.85558 5.37145 1.5 6.22989 1.5 7.125V8.25H22.5V7.125C22.5 6.22989 22.1444 5.37145 21.5115 4.73851C20.8785 4.10558 20.0201 3.75 19.125 3.75H4.875ZM1.5 16.875V9.75H22.5V16.875C22.5 17.7701 22.1444 18.6285 21.5115 19.2615C20.8785 19.8944 20.0201 20.25 19.125 20.25H4.875C3.97989 20.25 3.12145 19.8944 2.48851 19.2615C1.85558 18.6285 1.5 17.7701 1.5 16.875ZM15.75 14.25C15.5511 14.25 15.3603 14.329 15.2197 14.4697C15.079 14.6103 15 14.8011 15 15C15 15.1989 15.079 15.3897 15.2197 15.5303C15.3603 15.671 15.5511 15.75 15.75 15.75H18C18.1989 15.75 18.3897 15.671 18.5303 15.5303C18.671 15.3897 18.75 15.1989 18.75 15C18.75 14.8011 18.671 14.6103 18.5303 14.4697C18.3897 14.329 18.1989 14.25 18 14.25H15.75Z" fill="#343132"/>
</svg>
