<svg width="40" height="40" viewBox="0 0 40 40" fill="none" xmlns="http://www.w3.org/2000/svg">
<path d="M36.8155 10.3539C35.5776 10.9165 34.2433 11.2863 32.8608 11.4631C34.2755 10.6111 35.3686 9.2607 35.883 7.63703C34.5487 8.44082 33.0698 9.00348 31.5104 9.325C30.2404 7.94247 28.456 7.13867 26.4304 7.13867C22.6525 7.13867 19.566 10.2253 19.566 14.0353C19.566 14.5818 19.6303 15.1123 19.7428 15.6107C14.0198 15.3213 8.92368 12.5723 5.53166 8.40867C4.93685 9.42146 4.59925 10.6111 4.59925 11.865C4.59925 14.2603 5.80495 16.3823 7.66976 17.588C6.52837 17.588 5.46736 17.2665 4.53495 16.7842V16.8325C4.53495 20.1763 6.91419 22.9735 10.0651 23.6004C9.05346 23.8773 7.99143 23.9158 6.96242 23.713C7.39905 25.0834 8.25418 26.2826 9.4076 27.1419C10.561 28.0012 11.9547 28.4774 13.3928 28.5036C10.9551 30.4334 7.9334 31.4766 4.82432 31.4616C4.27773 31.4616 3.73115 31.4294 3.18457 31.3651C6.239 33.3264 9.87216 34.4678 13.7625 34.4678C26.4304 34.4678 33.3913 23.9541 33.3913 14.8391C33.3913 14.5336 33.3913 14.2442 33.3752 13.9388C34.7256 12.9742 35.883 11.7525 36.8155 10.3539Z" fill="#343132"/>
</svg>
