<svg width="1210" height="484" viewBox="0 0 1210 484" fill="none" xmlns="http://www.w3.org/2000/svg">
<path d="M133.078 0C130.864 0 129.757 0 128.949 0.620261C128.141 1.24052 127.854 2.31005 127.282 4.44912L35.3606 347.987C34.4323 351.457 33.9681 353.191 34.8687 354.365C35.7694 355.538 37.5652 355.538 41.1567 355.538H60.7726C62.9871 355.538 64.0943 355.538 64.9024 354.918C65.7104 354.297 65.9965 353.228 66.5688 351.088L151.001 35.4567C151.574 33.3174 151.86 32.2478 152.668 31.6275C153.476 31.0072 154.583 31.0072 156.798 31.0072H1198.12C1200.34 31.0072 1201.45 31.0072 1202.26 30.386C1203.07 29.7649 1203.35 28.6941 1203.92 26.5526L1208.99 7.5454C1209.91 4.07803 1210.38 2.34435 1209.47 1.17217C1208.57 0 1206.78 0 1203.19 0H133.078ZM1058.91 448.545C1058.33 450.683 1058.05 451.753 1057.24 452.373C1056.43 452.993 1055.32 452.993 1053.11 452.993H11.8754C9.65913 452.993 8.55097 452.993 7.74259 453.614C6.93421 454.235 6.64878 455.306 6.07792 457.447L1.01132 476.455C0.0870515 479.922 -0.375084 481.656 0.525564 482.828C1.42621 484 3.22044 484 6.80888 484H1076.89C1079.11 484 1080.22 484 1081.02 483.38C1081.83 482.759 1082.12 481.689 1082.69 479.55L1174.01 138.074C1174.94 134.605 1175.4 132.87 1174.5 131.697C1173.6 130.524 1171.8 130.524 1168.21 130.524H1148.66C1146.45 130.524 1145.34 130.524 1144.53 131.144C1143.72 131.764 1143.44 132.833 1142.87 134.972L1058.91 448.545Z" fill="#343132"/>
</svg>
