<svg width="1088" height="435" viewBox="0 0 1088 435" fill="none" xmlns="http://www.w3.org/2000/svg">
<path d="M120.045 0C117.831 0 116.724 0 115.916 0.620114C115.108 1.24023 114.821 2.30955 114.249 4.44819L31.9055 311.992C30.9765 315.461 30.5119 317.196 31.4126 318.37C32.3132 319.543 34.1092 319.543 37.7014 319.543H54.0917C56.3058 319.543 57.4129 319.543 58.2209 318.923C59.0289 318.303 59.3151 317.234 59.8876 315.095L135.581 32.3165C136.153 30.1777 136.439 29.1083 137.247 28.4882C138.055 27.868 139.162 27.868 141.377 27.868H1076.96C1079.17 27.868 1080.28 27.868 1081.09 27.247C1081.9 26.626 1082.18 25.5555 1082.75 23.4143L1086.99 7.54633C1087.91 4.0786 1088.37 2.34473 1087.47 1.17236C1086.57 0 1084.78 0 1081.19 0H120.045ZM952.336 402.685C951.763 404.823 951.476 405.892 950.668 406.512C949.86 407.132 948.754 407.132 946.54 407.132H11.0427C8.82672 407.132 7.71873 407.132 6.91041 407.753C6.10209 408.374 5.81653 409.444 5.24541 411.586L1.01287 427.454C0.0879036 430.921 -0.374579 432.655 0.526066 433.828C1.42671 435 3.2212 435 6.81018 435H967.931C970.145 435 971.252 435 972.06 434.38C972.868 433.759 973.154 432.69 973.727 430.551L1055.53 124.861C1056.46 121.391 1056.92 119.656 1056.02 118.483C1055.12 117.31 1053.32 117.31 1049.73 117.31H1033.4C1031.19 117.31 1030.08 117.31 1029.27 117.93C1028.46 118.55 1028.18 119.619 1027.6 121.757L952.336 402.685Z" fill="#343132"/>
</svg>
