<svg width="345" height="126" viewBox="0 0 345 126" fill="none" xmlns="http://www.w3.org/2000/svg">
<path d="M71.1288 94.9023L66.7733 81.5685H69.3522L71.3962 88.0635L72.5806 92.4954H72.6379L73.8032 88.0635L75.8472 81.5685H78.3497L73.9942 94.9023H71.1288ZM81.6678 83.4788C81.1584 83.4788 80.7891 83.3642 80.5598 83.1349C80.3433 82.9057 80.2351 82.6128 80.2351 82.2562V81.8741C80.2351 81.5175 80.3433 81.2246 80.5598 80.9954C80.7891 80.7662 81.1584 80.6515 81.6678 80.6515C82.1645 80.6515 82.5274 80.7662 82.7567 80.9954C82.9859 81.2246 83.1005 81.5175 83.1005 81.8741V82.2562C83.1005 82.6128 82.9859 82.9057 82.7567 83.1349C82.5274 83.3642 82.1645 83.4788 81.6678 83.4788ZM80.4452 84.9306H82.8904V94.9023H80.4452V84.9306ZM90.1374 95.1316C89.3988 95.1316 88.7365 95.0106 88.1507 94.7686C87.5776 94.5139 87.0873 94.1637 86.6798 93.718C86.285 93.2595 85.9793 92.7119 85.7628 92.0751C85.5463 91.4256 85.4381 90.6997 85.4381 89.8974C85.4381 89.1078 85.54 88.3946 85.7437 87.7578C85.9602 87.1211 86.2659 86.5798 86.6607 86.1341C87.0555 85.6756 87.5394 85.3254 88.1125 85.0834C88.6856 84.8287 89.3351 84.7014 90.061 84.7014C90.8379 84.7014 91.5128 84.8351 92.0859 85.1025C92.659 85.37 93.1302 85.7329 93.4995 86.1914C93.8689 86.6499 94.1427 87.1848 94.321 87.7961C94.512 88.3946 94.6075 89.0377 94.6075 89.7254V90.5278H87.9788V90.7761C87.9788 91.502 88.1826 92.0878 88.5901 92.5336C88.9976 92.9666 89.6025 93.1831 90.4049 93.1831C91.0162 93.1831 91.5128 93.0557 91.8949 92.801C92.2897 92.5463 92.6399 92.2216 92.9456 91.8268L94.2637 93.2977C93.8561 93.8708 93.2958 94.3229 92.5826 94.654C91.8822 94.9724 91.0671 95.1316 90.1374 95.1316ZM90.0992 86.5353C89.4497 86.5353 88.9339 86.7518 88.5519 87.1848C88.1698 87.6178 87.9788 88.1781 87.9788 88.8658V89.0186H92.0668V88.8467C92.0668 88.159 91.8949 87.605 91.551 87.1848C91.2199 86.7518 90.736 86.5353 90.0992 86.5353ZM96.0734 84.9306H98.423L99.4355 89.0377L100.219 92.4572H100.295L101.212 89.0377L102.377 84.9306H104.593L105.797 89.0377L106.733 92.4572H106.809L107.592 89.0377L108.586 84.9306H110.859L108.127 94.9023H105.491L104.211 90.5087L103.466 87.7961H103.409L102.683 90.5087L101.422 94.9023H98.8242L96.0734 84.9306ZM118.468 95.1316C117.59 95.1316 116.794 94.9851 116.081 94.6922C115.367 94.3993 114.756 93.9599 114.247 93.3741C113.75 92.7883 113.362 92.0687 113.081 91.2155C112.801 90.3622 112.661 89.3689 112.661 88.2354C112.661 87.1147 112.801 86.1277 113.081 85.2745C113.362 84.4085 113.75 83.6826 114.247 83.0967C114.756 82.5109 115.367 82.0715 116.081 81.7786C116.794 81.4857 117.59 81.3393 118.468 81.3393C119.347 81.3393 120.143 81.4857 120.856 81.7786C121.569 82.0715 122.181 82.5109 122.69 83.0967C123.2 83.6826 123.588 84.4085 123.855 85.2745C124.136 86.1277 124.276 87.1147 124.276 88.2354C124.276 89.3689 124.136 90.3622 123.855 91.2155C123.588 92.0687 123.2 92.7883 122.69 93.3741C122.181 93.9599 121.569 94.3993 120.856 94.6922C120.143 94.9851 119.347 95.1316 118.468 95.1316ZM118.468 92.8965C119.424 92.8965 120.181 92.5782 120.742 91.9414C121.315 91.3046 121.601 90.4132 121.601 89.267V87.2039C121.601 86.0577 121.315 85.1662 120.742 84.5294C120.181 83.8927 119.424 83.5743 118.468 83.5743C117.513 83.5743 116.749 83.8927 116.176 84.5294C115.616 85.1662 115.336 86.0577 115.336 87.2039V89.267C115.336 90.4132 115.616 91.3046 116.176 91.9414C116.749 92.5782 117.513 92.8965 118.468 92.8965ZM127.063 94.9023V84.9306H129.508V86.5926H129.604C129.808 86.0577 130.126 85.6119 130.559 85.2554C131.005 84.886 131.616 84.7014 132.393 84.7014C133.424 84.7014 134.214 85.0389 134.762 85.7138C135.309 86.3888 135.583 87.3503 135.583 88.5984V94.9023H133.138V88.8467C133.138 88.1335 133.01 87.5987 132.756 87.2421C132.501 86.8855 132.081 86.7072 131.495 86.7072C131.24 86.7072 130.992 86.7454 130.75 86.8218C130.521 86.8855 130.311 86.9874 130.12 87.1274C129.941 87.2548 129.795 87.4204 129.68 87.6241C129.566 87.8152 129.508 88.0444 129.508 88.3118V94.9023H127.063ZM140.387 94.9023L137.292 81.5685H139.814L141.132 87.968L141.953 92.056H142.011L142.966 87.968L144.494 81.5685H147.283L148.811 87.968L149.747 92.056H149.805L150.645 87.968L152.002 81.5685H154.409L151.218 94.9023H148.372L146.672 87.8534L145.85 84.3384H145.812L144.953 87.8534L143.252 94.9023H140.387ZM160.326 95.1316C159.587 95.1316 158.925 95.0106 158.339 94.7686C157.766 94.5139 157.276 94.1637 156.868 93.718C156.473 93.2595 156.168 92.7119 155.951 92.0751C155.735 91.4256 155.626 90.6997 155.626 89.8974C155.626 89.1078 155.728 88.3946 155.932 87.7578C156.149 87.1211 156.454 86.5798 156.849 86.1341C157.244 85.6756 157.728 85.3254 158.301 85.0834C158.874 84.8287 159.523 84.7014 160.249 84.7014C161.026 84.7014 161.701 84.8351 162.274 85.1025C162.847 85.37 163.319 85.7329 163.688 86.1914C164.057 86.6499 164.331 87.1848 164.509 87.7961C164.7 88.3946 164.796 89.0377 164.796 89.7254V90.5278H158.167V90.7761C158.167 91.502 158.371 92.0878 158.778 92.5336C159.186 92.9666 159.791 93.1831 160.593 93.1831C161.205 93.1831 161.701 93.0557 162.083 92.801C162.478 92.5463 162.828 92.2216 163.134 91.8268L164.452 93.2977C164.045 93.8708 163.484 94.3229 162.771 94.654C162.071 94.9724 161.255 95.1316 160.326 95.1316ZM160.288 86.5353C159.638 86.5353 159.122 86.7518 158.74 87.1848C158.358 87.6178 158.167 88.1781 158.167 88.8658V89.0186H162.255V88.8467C162.255 88.159 162.083 87.605 161.739 87.1848C161.408 86.7518 160.924 86.5353 160.288 86.5353ZM167.329 80.7662H169.774V86.5735H169.851C170.029 86.0004 170.367 85.5483 170.863 85.2172C171.36 84.8733 171.939 84.7014 172.602 84.7014C173.875 84.7014 174.843 85.1535 175.505 86.0577C176.18 86.9492 176.518 88.229 176.518 89.8974C176.518 91.5784 176.18 92.8711 175.505 93.7753C174.843 94.6795 173.875 95.1316 172.602 95.1316C171.939 95.1316 171.36 94.9597 170.863 94.6158C170.379 94.2719 170.042 93.8135 169.851 93.2404H169.774V94.9023H167.329V80.7662ZM171.818 93.1067C172.455 93.1067 172.971 92.8965 173.366 92.4763C173.761 92.056 173.958 91.4893 173.958 90.7761V89.0568C173.958 88.3437 173.761 87.7769 173.366 87.3567C172.971 86.9237 172.455 86.7072 171.818 86.7072C171.233 86.7072 170.742 86.8536 170.348 87.1465C169.965 87.4395 169.774 87.8279 169.774 88.3118V91.4829C169.774 92.0051 169.965 92.4062 170.348 92.6864C170.742 92.9666 171.233 93.1067 171.818 93.1067ZM182.432 95.1316C181.477 95.1316 180.675 94.9724 180.025 94.654C179.376 94.3229 178.803 93.8708 178.306 93.2977L179.796 91.8459C180.165 92.2661 180.567 92.5973 181 92.8392C181.445 93.0812 181.955 93.2022 182.528 93.2022C183.114 93.2022 183.534 93.1003 183.789 92.8965C184.056 92.6928 184.19 92.4126 184.19 92.056C184.19 91.7631 184.094 91.5339 183.903 91.3683C183.725 91.19 183.413 91.069 182.967 91.0053L181.974 90.8716C180.891 90.7315 180.063 90.4259 179.49 89.9547C178.93 89.4707 178.65 88.7703 178.65 87.8534C178.65 87.3694 178.739 86.9364 178.917 86.5544C179.096 86.1596 179.35 85.8284 179.681 85.561C180.013 85.2808 180.407 85.0707 180.866 84.9306C181.337 84.7778 181.859 84.7014 182.432 84.7014C182.916 84.7014 183.343 84.7396 183.712 84.816C184.094 84.8797 184.438 84.9816 184.744 85.1216C185.049 85.249 185.33 85.4145 185.584 85.6183C185.839 85.8093 186.087 86.0258 186.329 86.2678L184.897 87.7005C184.604 87.3949 184.253 87.1402 183.846 86.9364C183.438 86.7327 182.993 86.6308 182.509 86.6308C181.974 86.6308 181.585 86.7263 181.343 86.9173C181.114 87.1083 181 87.3567 181 87.6623C181 87.9934 181.095 88.2482 181.286 88.4264C181.49 88.592 181.827 88.713 182.299 88.7894L183.311 88.9231C185.463 89.2288 186.539 90.2094 186.539 91.865C186.539 92.3489 186.437 92.7947 186.234 93.2022C186.043 93.597 185.769 93.9408 185.412 94.2337C185.056 94.5139 184.623 94.7368 184.113 94.9023C183.617 95.0552 183.056 95.1316 182.432 95.1316ZM190.303 83.4788C189.794 83.4788 189.424 83.3642 189.195 83.1349C188.979 82.9057 188.87 82.6128 188.87 82.2562V81.8741C188.87 81.5175 188.979 81.2246 189.195 80.9954C189.424 80.7662 189.794 80.6515 190.303 80.6515C190.8 80.6515 191.163 80.7662 191.392 80.9954C191.621 81.2246 191.736 81.5175 191.736 81.8741V82.2562C191.736 82.6128 191.621 82.9057 191.392 83.1349C191.163 83.3642 190.8 83.4788 190.303 83.4788ZM189.08 84.9306H191.526V94.9023H189.08V84.9306ZM197.856 94.9023C197.015 94.9023 196.372 94.6858 195.926 94.2528C195.493 93.8071 195.277 93.1767 195.277 92.3617V86.8791H193.806V84.9306H194.57C194.939 84.9306 195.188 84.8478 195.315 84.6823C195.455 84.504 195.525 84.2429 195.525 83.899V82.1989H197.722V84.9306H199.766V86.8791H197.722V92.9538H199.613V94.9023H197.856ZM206.225 95.1316C205.486 95.1316 204.824 95.0106 204.238 94.7686C203.665 94.5139 203.175 94.1637 202.767 93.718C202.373 93.2595 202.067 92.7119 201.851 92.0751C201.634 91.4256 201.526 90.6997 201.526 89.8974C201.526 89.1078 201.628 88.3946 201.831 87.7578C202.048 87.1211 202.354 86.5798 202.748 86.1341C203.143 85.6756 203.627 85.3254 204.2 85.0834C204.773 84.8287 205.423 84.7014 206.149 84.7014C206.926 84.7014 207.6 84.8351 208.174 85.1025C208.747 85.37 209.218 85.7329 209.587 86.1914C209.957 86.6499 210.23 87.1848 210.409 87.7961C210.6 88.3946 210.695 89.0377 210.695 89.7254V90.5278H204.066V90.7761C204.066 91.502 204.27 92.0878 204.678 92.5336C205.085 92.9666 205.69 93.1831 206.493 93.1831C207.104 93.1831 207.6 93.0557 207.983 92.801C208.377 92.5463 208.728 92.2216 209.033 91.8268L210.351 93.2977C209.944 93.8708 209.383 94.3229 208.67 94.654C207.97 94.9724 207.155 95.1316 206.225 95.1316ZM206.187 86.5353C205.537 86.5353 205.022 86.7518 204.64 87.1848C204.257 87.6178 204.066 88.1781 204.066 88.8658V89.0186H208.154V88.8467C208.154 88.159 207.983 87.605 207.639 87.1848C207.308 86.7518 206.824 86.5353 206.187 86.5353ZM214.363 95.1125C213.841 95.1125 213.452 94.9851 213.198 94.7304C212.956 94.463 212.835 94.1255 212.835 93.718V93.3741C212.835 92.9666 212.956 92.6291 213.198 92.3617C213.452 92.0942 213.841 91.9605 214.363 91.9605C214.898 91.9605 215.286 92.0942 215.528 92.3617C215.77 92.6291 215.891 92.9666 215.891 93.3741V93.718C215.891 94.1255 215.77 94.463 215.528 94.7304C215.286 94.9851 214.898 95.1125 214.363 95.1125ZM222.695 95.1316C221.956 95.1316 221.3 95.0106 220.727 94.7686C220.154 94.5267 219.67 94.1764 219.275 93.718C218.893 93.2595 218.6 92.7119 218.397 92.0751C218.193 91.4256 218.091 90.6997 218.091 89.8974C218.091 89.095 218.193 88.3755 218.397 87.7387C218.6 87.102 218.893 86.5607 219.275 86.115C219.67 85.6565 220.154 85.3063 220.727 85.0643C221.3 84.8224 221.956 84.7014 222.695 84.7014C223.701 84.7014 224.529 84.9242 225.178 85.37C225.84 85.8157 226.318 86.4334 226.611 87.223L224.605 88.1208C224.49 87.7005 224.274 87.3567 223.955 87.0892C223.65 86.8091 223.23 86.669 222.695 86.669C222.007 86.669 221.491 86.8855 221.147 87.3185C220.816 87.7515 220.651 88.3182 220.651 89.0186V90.8334C220.651 91.5339 220.816 92.1006 221.147 92.5336C221.491 92.9538 222.007 93.164 222.695 93.164C223.28 93.164 223.733 93.0175 224.051 92.7246C224.369 92.419 224.618 92.0433 224.796 91.5975L226.668 92.4954C226.337 93.3741 225.834 94.0363 225.159 94.4821C224.484 94.9151 223.663 95.1316 222.695 95.1316ZM232.797 95.1316C232.083 95.1316 231.44 95.0106 230.867 94.7686C230.307 94.5267 229.823 94.1764 229.415 93.718C229.021 93.2595 228.715 92.7119 228.498 92.0751C228.282 91.4256 228.174 90.6997 228.174 89.8974C228.174 89.095 228.282 88.3755 228.498 87.7387C228.715 87.102 229.021 86.5607 229.415 86.115C229.823 85.6565 230.307 85.3063 230.867 85.0643C231.44 84.8224 232.083 84.7014 232.797 84.7014C233.51 84.7014 234.153 84.8224 234.726 85.0643C235.299 85.3063 235.783 85.6565 236.178 86.115C236.585 86.5607 236.897 87.102 237.114 87.7387C237.33 88.3755 237.439 89.095 237.439 89.8974C237.439 90.6997 237.33 91.4256 237.114 92.0751C236.897 92.7119 236.585 93.2595 236.178 93.718C235.783 94.1764 235.299 94.5267 234.726 94.7686C234.153 95.0106 233.51 95.1316 232.797 95.1316ZM232.797 93.164C233.446 93.164 233.955 92.9666 234.325 92.5718C234.694 92.177 234.879 91.5975 234.879 90.8334V88.9804C234.879 88.229 234.694 87.656 234.325 87.2612C233.955 86.8664 233.446 86.669 232.797 86.669C232.16 86.669 231.657 86.8664 231.287 87.2612C230.918 87.656 230.733 88.229 230.733 88.9804V90.8334C230.733 91.5975 230.918 92.177 231.287 92.5718C231.657 92.9666 232.16 93.164 232.797 93.164ZM239.988 94.9023V84.9306H242.434V86.5926H242.529C242.72 86.0704 243.026 85.6247 243.446 85.2554C243.866 84.886 244.452 84.7014 245.203 84.7014C245.891 84.7014 246.483 84.8669 246.98 85.1981C247.477 85.5292 247.846 86.0322 248.088 86.7072H248.126C248.304 86.1468 248.655 85.6756 249.177 85.2936C249.712 84.8988 250.38 84.7014 251.183 84.7014C252.163 84.7014 252.915 85.0389 253.437 85.7138C253.972 86.3888 254.239 87.3503 254.239 88.5984V94.9023H251.794V88.8467C251.794 87.4204 251.259 86.7072 250.189 86.7072C249.947 86.7072 249.712 86.7454 249.483 86.8218C249.266 86.8855 249.069 86.9874 248.89 87.1274C248.725 87.2548 248.591 87.4204 248.489 87.6241C248.387 87.8152 248.336 88.0444 248.336 88.3118V94.9023H245.891V88.8467C245.891 87.4204 245.356 86.7072 244.287 86.7072C244.057 86.7072 243.828 86.7454 243.599 86.8218C243.382 86.8855 243.185 86.9874 243.007 87.1274C242.841 87.2548 242.701 87.4204 242.586 87.6241C242.484 87.8152 242.434 88.0444 242.434 88.3118V94.9023H239.988Z" fill="#0090EC"/>
<path d="M62.1098 59.448H56.4218L55.2698 66H52.2098L53.3258 59.448H49.4018V56.496H53.8658L54.8738 50.376H50.9858V47.424H55.4138L56.5298 40.872H59.5898L58.4378 47.424H64.1618L65.2778 40.872H68.3378L67.2218 47.424H71.1458V50.376H66.6818L65.6378 56.496H69.5618V59.448H65.1338L63.9818 66H60.9578L62.1098 59.448ZM62.5778 56.496L63.6578 50.376H57.9698L56.8898 56.496H62.5778ZM81.7748 66V56.136L73.1708 40.872H78.4988L84.2948 51.492H84.3668L90.0188 40.872H95.2028L86.5628 56.1V66H81.7748ZM104.354 66.432C103.01 66.432 101.798 66.204 100.718 65.748C99.6618 65.292 98.7498 64.632 97.9818 63.768C97.2378 62.904 96.6618 61.872 96.2538 60.672C95.8458 59.448 95.6418 58.08 95.6418 56.568C95.6418 55.056 95.8458 53.7 96.2538 52.5C96.6618 51.3 97.2378 50.28 97.9818 49.44C98.7498 48.576 99.6618 47.916 100.718 47.46C101.798 47.004 103.01 46.776 104.354 46.776C105.698 46.776 106.91 47.004 107.99 47.46C109.07 47.916 109.982 48.576 110.726 49.44C111.494 50.28 112.082 51.3 112.49 52.5C112.898 53.7 113.102 55.056 113.102 56.568C113.102 58.08 112.898 59.448 112.49 60.672C112.082 61.872 111.494 62.904 110.726 63.768C109.982 64.632 109.07 65.292 107.99 65.748C106.91 66.204 105.698 66.432 104.354 66.432ZM104.354 62.724C105.578 62.724 106.538 62.352 107.234 61.608C107.93 60.864 108.278 59.772 108.278 58.332V54.84C108.278 53.424 107.93 52.344 107.234 51.6C106.538 50.856 105.578 50.484 104.354 50.484C103.154 50.484 102.206 50.856 101.51 51.6C100.814 52.344 100.466 53.424 100.466 54.84V58.332C100.466 59.772 100.814 60.864 101.51 61.608C102.206 62.352 103.154 62.724 104.354 62.724ZM129.139 62.868H128.959C128.791 63.348 128.563 63.804 128.275 64.236C128.011 64.644 127.663 65.016 127.231 65.352C126.823 65.688 126.319 65.952 125.719 66.144C125.143 66.336 124.471 66.432 123.703 66.432C121.759 66.432 120.271 65.796 119.239 64.524C118.207 63.252 117.691 61.44 117.691 59.088V47.208H122.299V58.62C122.299 59.916 122.551 60.912 123.055 61.608C123.559 62.28 124.363 62.616 125.467 62.616C125.923 62.616 126.367 62.556 126.799 62.436C127.255 62.316 127.651 62.136 127.987 61.896C128.323 61.632 128.599 61.32 128.815 60.96C129.031 60.576 129.139 60.132 129.139 59.628V47.208H133.747V66H129.139V62.868ZM139.791 66V47.208H144.399V51.096H144.579C144.699 50.592 144.879 50.112 145.119 49.656C145.383 49.176 145.719 48.756 146.127 48.396C146.535 48.036 147.015 47.748 147.567 47.532C148.143 47.316 148.803 47.208 149.547 47.208H150.555V51.564H149.115C147.555 51.564 146.379 51.792 145.587 52.248C144.795 52.704 144.399 53.448 144.399 54.48V66H139.791ZM163.032 54.624L159.684 58.584V66H154.932V40.872H159.684V53.256H159.864L163.428 48.54L169.656 40.872H175.128L166.38 51.348L175.848 66H170.196L163.032 54.624ZM186.444 66.432C185.052 66.432 183.804 66.204 182.7 65.748C181.62 65.268 180.696 64.608 179.928 63.768C179.184 62.904 178.608 61.872 178.2 60.672C177.792 59.448 177.588 58.08 177.588 56.568C177.588 55.08 177.78 53.736 178.164 52.536C178.572 51.336 179.148 50.316 179.892 49.476C180.636 48.612 181.548 47.952 182.628 47.496C183.708 47.016 184.932 46.776 186.3 46.776C187.764 46.776 189.036 47.028 190.116 47.532C191.196 48.036 192.084 48.72 192.78 49.584C193.476 50.448 193.992 51.456 194.328 52.608C194.688 53.736 194.868 54.948 194.868 56.244V57.756H182.376V58.224C182.376 59.592 182.76 60.696 183.528 61.536C184.296 62.352 185.436 62.76 186.948 62.76C188.1 62.76 189.036 62.52 189.756 62.04C190.5 61.56 191.16 60.948 191.736 60.204L194.22 62.976C193.452 64.056 192.396 64.908 191.052 65.532C189.732 66.132 188.196 66.432 186.444 66.432ZM186.372 50.232C185.148 50.232 184.176 50.64 183.456 51.456C182.736 52.272 182.376 53.328 182.376 54.624V54.912H190.08V54.588C190.08 53.292 189.756 52.248 189.108 51.456C188.484 50.64 187.572 50.232 186.372 50.232ZM210.951 47.208H215.271L207.711 69.348C207.471 70.02 207.195 70.596 206.883 71.076C206.595 71.58 206.247 71.988 205.839 72.3C205.431 72.612 204.939 72.84 204.363 72.984C203.787 73.128 203.115 73.2 202.347 73.2H199.575V69.528H202.959L203.823 66.9L197.091 47.208H201.663L204.939 57.144L206.163 61.896H206.379L207.675 57.144L210.951 47.208ZM217.194 47.208H221.622L223.53 54.948L225.006 61.392H225.15L226.878 54.948L229.074 47.208H233.25L235.518 54.948L237.282 61.392H237.426L238.902 54.948L240.774 47.208H245.058L239.91 66H234.942L232.53 57.72L231.126 52.608H231.018L229.65 57.72L227.274 66H222.378L217.194 47.208ZM256.382 66.432C255.038 66.432 253.826 66.204 252.746 65.748C251.69 65.292 250.778 64.632 250.01 63.768C249.266 62.904 248.69 61.872 248.282 60.672C247.874 59.448 247.67 58.08 247.67 56.568C247.67 55.056 247.874 53.7 248.282 52.5C248.69 51.3 249.266 50.28 250.01 49.44C250.778 48.576 251.69 47.916 252.746 47.46C253.826 47.004 255.038 46.776 256.382 46.776C257.726 46.776 258.938 47.004 260.018 47.46C261.098 47.916 262.01 48.576 262.754 49.44C263.522 50.28 264.11 51.3 264.518 52.5C264.926 53.7 265.13 55.056 265.13 56.568C265.13 58.08 264.926 59.448 264.518 60.672C264.11 61.872 263.522 62.904 262.754 63.768C262.01 64.632 261.098 65.292 260.018 65.748C258.938 66.204 257.726 66.432 256.382 66.432ZM256.382 62.724C257.606 62.724 258.566 62.352 259.262 61.608C259.958 60.864 260.306 59.772 260.306 58.332V54.84C260.306 53.424 259.958 52.344 259.262 51.6C258.566 50.856 257.606 50.484 256.382 50.484C255.182 50.484 254.234 50.856 253.538 51.6C252.842 52.344 252.494 53.424 252.494 54.84V58.332C252.494 59.772 252.842 60.864 253.538 61.608C254.234 62.352 255.182 62.724 256.382 62.724ZM269.935 66V47.208H274.543V51.096H274.723C274.843 50.592 275.023 50.112 275.263 49.656C275.527 49.176 275.863 48.756 276.271 48.396C276.679 48.036 277.159 47.748 277.711 47.532C278.287 47.316 278.947 47.208 279.691 47.208H280.699V51.564H279.259C277.699 51.564 276.523 51.792 275.731 52.248C274.939 52.704 274.543 53.448 274.543 54.48V66H269.935ZM296.276 62.868H296.096C295.76 63.948 295.124 64.812 294.188 65.46C293.252 66.108 292.16 66.432 290.912 66.432C288.536 66.432 286.712 65.58 285.44 63.876C284.192 62.172 283.568 59.736 283.568 56.568C283.568 53.424 284.192 51.012 285.44 49.332C286.712 47.628 288.536 46.776 290.912 46.776C292.16 46.776 293.252 47.1 294.188 47.748C295.124 48.372 295.76 49.224 296.096 50.304H296.276V39.36H300.884V66H296.276V62.868ZM292.388 62.616C293.492 62.616 294.416 62.352 295.16 61.824C295.904 61.296 296.276 60.54 296.276 59.556V53.58C296.276 52.668 295.904 51.936 295.16 51.384C294.416 50.832 293.492 50.556 292.388 50.556C291.188 50.556 290.216 50.964 289.472 51.78C288.752 52.572 288.392 53.64 288.392 54.984V58.224C288.392 59.568 288.752 60.636 289.472 61.428C290.216 62.22 291.188 62.616 292.388 62.616Z" fill="#31E716"/>
<path d="M36.8162 0C35.294 0 34.5329 0 33.9775 0.426475C33.4222 0.852949 33.2258 1.58826 32.8329 3.05888L10.2768 87.4971C9.67245 89.7596 9.37025 90.8908 9.91999 91.6771C9.95522 91.7275 9.99269 91.7763 10.0323 91.8234C10.6501 92.5574 11.821 92.5574 14.1628 92.5574V92.5574C15.6092 92.5574 16.3323 92.5574 16.8714 92.1702C16.9071 92.1446 16.9419 92.1178 16.9759 92.0899C17.4891 91.669 17.6757 90.9703 18.0489 89.573L38.9977 11.1312C39.3905 9.66051 39.5868 8.92514 40.1422 8.49863C40.6976 8.07211 41.4587 8.07211 42.981 8.07211H338.898C340.356 8.07211 341.085 8.07211 341.626 7.67912C341.657 7.65682 341.687 7.63368 341.716 7.60973C342.235 7.18743 342.423 6.48296 342.798 5.07402V5.07402C343.404 2.7964 343.707 1.65758 343.148 0.869113C343.117 0.825853 343.085 0.783792 343.051 0.743026C342.433 0 341.254 0 338.898 0H36.8162ZM305.127 114.87C304.734 116.34 304.537 117.075 303.982 117.502C303.426 117.928 302.665 117.928 301.143 117.928H5.25061C3.79263 117.928 3.06364 117.928 2.52206 118.321C2.49134 118.343 2.46124 118.366 2.4318 118.39C1.91274 118.813 1.72526 119.517 1.35031 120.926V120.926C0.744181 123.204 0.441117 124.342 1.00018 125.131C1.03085 125.174 1.06318 125.216 1.09709 125.257C1.71526 126 2.89372 126 5.25062 126H307.325C308.847 126 309.608 126 310.164 125.573C310.719 125.147 310.915 124.411 311.308 122.941L333.71 39.0294C334.312 36.7764 334.613 35.6498 334.068 34.8653C334.03 34.8109 333.99 34.7584 333.947 34.7079C333.33 33.9793 332.164 33.9793 329.832 33.9793V33.9793C328.392 33.9793 327.671 33.9793 327.134 34.3635C327.095 34.391 327.058 34.4198 327.021 34.4499C326.511 34.8701 326.325 35.5658 325.953 36.9571L305.127 114.87Z" fill="#343132"/>
</svg>
