<svg width="345" height="126" viewBox="0 0 345 126" fill="none" xmlns="http://www.w3.org/2000/svg">
<path d="M71.1288 94.9023L66.7733 81.5685H69.3522L71.3962 88.0635L72.5806 92.4954H72.6379L73.8032 88.0635L75.8472 81.5685H78.3497L73.9942 94.9023H71.1288ZM81.6678 83.4788C81.1584 83.4788 80.7891 83.3642 80.5598 83.1349C80.3433 82.9057 80.2351 82.6128 80.2351 82.2562V81.8741C80.2351 81.5175 80.3433 81.2246 80.5598 80.9954C80.7891 80.7662 81.1584 80.6515 81.6678 80.6515C82.1645 80.6515 82.5274 80.7662 82.7567 80.9954C82.9859 81.2246 83.1005 81.5175 83.1005 81.8741V82.2562C83.1005 82.6128 82.9859 82.9057 82.7567 83.1349C82.5274 83.3642 82.1645 83.4788 81.6678 83.4788ZM80.4452 84.9306H82.8904V94.9023H80.4452V84.9306ZM90.1374 95.1316C89.3988 95.1316 88.7365 95.0106 88.1507 94.7686C87.5776 94.5139 87.0873 94.1637 86.6798 93.718C86.285 93.2595 85.9793 92.7119 85.7628 92.0751C85.5463 91.4256 85.4381 90.6997 85.4381 89.8974C85.4381 89.1078 85.54 88.3946 85.7437 87.7578C85.9602 87.1211 86.2659 86.5798 86.6607 86.1341C87.0555 85.6756 87.5394 85.3254 88.1125 85.0834C88.6856 84.8287 89.3351 84.7014 90.061 84.7014C90.8379 84.7014 91.5128 84.8351 92.0859 85.1025C92.659 85.37 93.1302 85.7329 93.4995 86.1914C93.8689 86.6499 94.1427 87.1848 94.321 87.7961C94.512 88.3946 94.6075 89.0377 94.6075 89.7254V90.5278H87.9788V90.7761C87.9788 91.502 88.1826 92.0878 88.5901 92.5336C88.9976 92.9666 89.6025 93.1831 90.4049 93.1831C91.0162 93.1831 91.5128 93.0557 91.8949 92.801C92.2897 92.5463 92.6399 92.2216 92.9456 91.8268L94.2637 93.2977C93.8561 93.8708 93.2958 94.3229 92.5826 94.654C91.8822 94.9724 91.0671 95.1316 90.1374 95.1316ZM90.0992 86.5353C89.4497 86.5353 88.9339 86.7518 88.5519 87.1848C88.1698 87.6178 87.9788 88.1781 87.9788 88.8658V89.0186H92.0668V88.8467C92.0668 88.159 91.8949 87.605 91.551 87.1848C91.2199 86.7518 90.736 86.5353 90.0992 86.5353ZM96.0734 84.9306H98.423L99.4355 89.0377L100.219 92.4572H100.295L101.212 89.0377L102.377 84.9306H104.593L105.797 89.0377L106.733 92.4572H106.809L107.592 89.0377L108.586 84.9306H110.859L108.127 94.9023H105.491L104.211 90.5087L103.466 87.7961H103.409L102.683 90.5087L101.422 94.9023H98.8242L96.0734 84.9306ZM118.468 95.1316C117.59 95.1316 116.794 94.9851 116.081 94.6922C115.367 94.3993 114.756 93.9599 114.247 93.3741C113.75 92.7883 113.362 92.0687 113.081 91.2155C112.801 90.3622 112.661 89.3689 112.661 88.2354C112.661 87.1147 112.801 86.1277 113.081 85.2745C113.362 84.4085 113.75 83.6826 114.247 83.0967C114.756 82.5109 115.367 82.0715 116.081 81.7786C116.794 81.4857 117.59 81.3393 118.468 81.3393C119.347 81.3393 120.143 81.4857 120.856 81.7786C121.569 82.0715 122.181 82.5109 122.69 83.0967C123.2 83.6826 123.588 84.4085 123.855 85.2745C124.136 86.1277 124.276 87.1147 124.276 88.2354C124.276 89.3689 124.136 90.3622 123.855 91.2155C123.588 92.0687 123.2 92.7883 122.69 93.3741C122.181 93.9599 121.569 94.3993 120.856 94.6922C120.143 94.9851 119.347 95.1316 118.468 95.1316ZM118.468 92.8965C119.424 92.8965 120.181 92.5782 120.742 91.9414C121.315 91.3046 121.601 90.4132 121.601 89.267V87.2039C121.601 86.0577 121.315 85.1662 120.742 84.5294C120.181 83.8927 119.424 83.5743 118.468 83.5743C117.513 83.5743 116.749 83.8927 116.176 84.5294C115.616 85.1662 115.336 86.0577 115.336 87.2039V89.267C115.336 90.4132 115.616 91.3046 116.176 91.9414C116.749 92.5782 117.513 92.8965 118.468 92.8965ZM127.063 94.9023V84.9306H129.508V86.5926H129.604C129.808 86.0577 130.126 85.6119 130.559 85.2554C131.005 84.886 131.616 84.7014 132.393 84.7014C133.424 84.7014 134.214 85.0389 134.762 85.7138C135.309 86.3888 135.583 87.3503 135.583 88.5984V94.9023H133.138V88.8467C133.138 88.1335 133.01 87.5987 132.756 87.2421C132.501 86.8855 132.081 86.7072 131.495 86.7072C131.24 86.7072 130.992 86.7454 130.75 86.8218C130.521 86.8855 130.311 86.9874 130.12 87.1274C129.941 87.2548 129.795 87.4204 129.68 87.6241C129.566 87.8152 129.508 88.0444 129.508 88.3118V94.9023H127.063ZM140.387 94.9023L137.292 81.5685H139.814L141.132 87.968L141.953 92.056H142.011L142.966 87.968L144.494 81.5685H147.283L148.811 87.968L149.747 92.056H149.805L150.645 87.968L152.002 81.5685H154.409L151.218 94.9023H148.372L146.672 87.8534L145.85 84.3384H145.812L144.953 87.8534L143.252 94.9023H140.387ZM160.326 95.1316C159.587 95.1316 158.925 95.0106 158.339 94.7686C157.766 94.5139 157.276 94.1637 156.868 93.718C156.473 93.2595 156.168 92.7119 155.951 92.0751C155.735 91.4256 155.626 90.6997 155.626 89.8974C155.626 89.1078 155.728 88.3946 155.932 87.7578C156.149 87.1211 156.454 86.5798 156.849 86.1341C157.244 85.6756 157.728 85.3254 158.301 85.0834C158.874 84.8287 159.523 84.7014 160.249 84.7014C161.026 84.7014 161.701 84.8351 162.274 85.1025C162.847 85.37 163.319 85.7329 163.688 86.1914C164.057 86.6499 164.331 87.1848 164.509 87.7961C164.7 88.3946 164.796 89.0377 164.796 89.7254V90.5278H158.167V90.7761C158.167 91.502 158.371 92.0878 158.778 92.5336C159.186 92.9666 159.791 93.1831 160.593 93.1831C161.205 93.1831 161.701 93.0557 162.083 92.801C162.478 92.5463 162.828 92.2216 163.134 91.8268L164.452 93.2977C164.045 93.8708 163.484 94.3229 162.771 94.654C162.071 94.9724 161.255 95.1316 160.326 95.1316ZM160.288 86.5353C159.638 86.5353 159.122 86.7518 158.74 87.1848C158.358 87.6178 158.167 88.1781 158.167 88.8658V89.0186H162.255V88.8467C162.255 88.159 162.083 87.605 161.739 87.1848C161.408 86.7518 160.924 86.5353 160.288 86.5353ZM167.329 80.7662H169.774V86.5735H169.851C170.029 86.0004 170.367 85.5483 170.863 85.2172C171.36 84.8733 171.939 84.7014 172.602 84.7014C173.875 84.7014 174.843 85.1535 175.505 86.0577C176.18 86.9492 176.518 88.229 176.518 89.8974C176.518 91.5784 176.18 92.8711 175.505 93.7753C174.843 94.6795 173.875 95.1316 172.602 95.1316C171.939 95.1316 171.36 94.9597 170.863 94.6158C170.379 94.2719 170.042 93.8135 169.851 93.2404H169.774V94.9023H167.329V80.7662ZM171.818 93.1067C172.455 93.1067 172.971 92.8965 173.366 92.4763C173.761 92.056 173.958 91.4893 173.958 90.7761V89.0568C173.958 88.3437 173.761 87.7769 173.366 87.3567C172.971 86.9237 172.455 86.7072 171.818 86.7072C171.233 86.7072 170.742 86.8536 170.348 87.1465C169.965 87.4395 169.774 87.8279 169.774 88.3118V91.4829C169.774 92.0051 169.965 92.4062 170.348 92.6864C170.742 92.9666 171.233 93.1067 171.818 93.1067ZM182.432 95.1316C181.477 95.1316 180.675 94.9724 180.025 94.654C179.376 94.3229 178.803 93.8708 178.306 93.2977L179.796 91.8459C180.165 92.2661 180.567 92.5973 181 92.8392C181.445 93.0812 181.955 93.2022 182.528 93.2022C183.114 93.2022 183.534 93.1003 183.789 92.8965C184.056 92.6928 184.19 92.4126 184.19 92.056C184.19 91.7631 184.094 91.5339 183.903 91.3683C183.725 91.19 183.413 91.069 182.967 91.0053L181.974 90.8716C180.891 90.7315 180.063 90.4259 179.49 89.9547C178.93 89.4707 178.65 88.7703 178.65 87.8534C178.65 87.3694 178.739 86.9364 178.917 86.5544C179.096 86.1596 179.35 85.8284 179.681 85.561C180.013 85.2808 180.407 85.0707 180.866 84.9306C181.337 84.7778 181.859 84.7014 182.432 84.7014C182.916 84.7014 183.343 84.7396 183.712 84.816C184.094 84.8797 184.438 84.9816 184.744 85.1216C185.049 85.249 185.33 85.4145 185.584 85.6183C185.839 85.8093 186.087 86.0258 186.329 86.2678L184.897 87.7005C184.604 87.3949 184.253 87.1402 183.846 86.9364C183.438 86.7327 182.993 86.6308 182.509 86.6308C181.974 86.6308 181.585 86.7263 181.343 86.9173C181.114 87.1083 181 87.3567 181 87.6623C181 87.9934 181.095 88.2482 181.286 88.4264C181.49 88.592 181.827 88.713 182.299 88.7894L183.311 88.9231C185.463 89.2288 186.539 90.2094 186.539 91.865C186.539 92.3489 186.437 92.7947 186.234 93.2022C186.043 93.597 185.769 93.9408 185.412 94.2337C185.056 94.5139 184.623 94.7368 184.113 94.9023C183.617 95.0552 183.056 95.1316 182.432 95.1316ZM190.303 83.4788C189.794 83.4788 189.424 83.3642 189.195 83.1349C188.979 82.9057 188.87 82.6128 188.87 82.2562V81.8741C188.87 81.5175 188.979 81.2246 189.195 80.9954C189.424 80.7662 189.794 80.6515 190.303 80.6515C190.8 80.6515 191.163 80.7662 191.392 80.9954C191.621 81.2246 191.736 81.5175 191.736 81.8741V82.2562C191.736 82.6128 191.621 82.9057 191.392 83.1349C191.163 83.3642 190.8 83.4788 190.303 83.4788ZM189.08 84.9306H191.526V94.9023H189.08V84.9306ZM197.856 94.9023C197.015 94.9023 196.372 94.6858 195.926 94.2528C195.493 93.8071 195.277 93.1767 195.277 92.3617V86.8791H193.806V84.9306H194.57C194.939 84.9306 195.188 84.8478 195.315 84.6823C195.455 84.504 195.525 84.2429 195.525 83.899V82.1989H197.722V84.9306H199.766V86.8791H197.722V92.9538H199.613V94.9023H197.856ZM206.225 95.1316C205.486 95.1316 204.824 95.0106 204.238 94.7686C203.665 94.5139 203.175 94.1637 202.767 93.718C202.373 93.2595 202.067 92.7119 201.851 92.0751C201.634 91.4256 201.526 90.6997 201.526 89.8974C201.526 89.1078 201.628 88.3946 201.831 87.7578C202.048 87.1211 202.354 86.5798 202.748 86.1341C203.143 85.6756 203.627 85.3254 204.2 85.0834C204.773 84.8287 205.423 84.7014 206.149 84.7014C206.926 84.7014 207.6 84.8351 208.174 85.1025C208.747 85.37 209.218 85.7329 209.587 86.1914C209.957 86.6499 210.23 87.1848 210.409 87.7961C210.6 88.3946 210.695 89.0377 210.695 89.7254V90.5278H204.066V90.7761C204.066 91.502 204.27 92.0878 204.678 92.5336C205.085 92.9666 205.69 93.1831 206.493 93.1831C207.104 93.1831 207.6 93.0557 207.983 92.801C208.377 92.5463 208.728 92.2216 209.033 91.8268L210.351 93.2977C209.944 93.8708 209.383 94.3229 208.67 94.654C207.97 94.9724 207.155 95.1316 206.225 95.1316ZM206.187 86.5353C205.537 86.5353 205.022 86.7518 204.64 87.1848C204.257 87.6178 204.066 88.1781 204.066 88.8658V89.0186H208.154V88.8467C208.154 88.159 207.983 87.605 207.639 87.1848C207.308 86.7518 206.824 86.5353 206.187 86.5353ZM214.363 95.1125C213.841 95.1125 213.452 94.9851 213.198 94.7304C212.956 94.463 212.835 94.1255 212.835 93.718V93.3741C212.835 92.9666 212.956 92.6291 213.198 92.3617C213.452 92.0942 213.841 91.9605 214.363 91.9605C214.898 91.9605 215.286 92.0942 215.528 92.3617C215.77 92.6291 215.891 92.9666 215.891 93.3741V93.718C215.891 94.1255 215.77 94.463 215.528 94.7304C215.286 94.9851 214.898 95.1125 214.363 95.1125ZM222.695 95.1316C221.956 95.1316 221.3 95.0106 220.727 94.7686C220.154 94.5267 219.67 94.1764 219.275 93.718C218.893 93.2595 218.6 92.7119 218.397 92.0751C218.193 91.4256 218.091 90.6997 218.091 89.8974C218.091 89.095 218.193 88.3755 218.397 87.7387C218.6 87.102 218.893 86.5607 219.275 86.115C219.67 85.6565 220.154 85.3063 220.727 85.0643C221.3 84.8224 221.956 84.7014 222.695 84.7014C223.701 84.7014 224.529 84.9242 225.178 85.37C225.84 85.8157 226.318 86.4334 226.611 87.223L224.605 88.1208C224.49 87.7005 224.274 87.3567 223.955 87.0892C223.65 86.8091 223.23 86.669 222.695 86.669C222.007 86.669 221.491 86.8855 221.147 87.3185C220.816 87.7515 220.651 88.3182 220.651 89.0186V90.8334C220.651 91.5339 220.816 92.1006 221.147 92.5336C221.491 92.9538 222.007 93.164 222.695 93.164C223.28 93.164 223.733 93.0175 224.051 92.7246C224.369 92.419 224.618 92.0433 224.796 91.5975L226.668 92.4954C226.337 93.3741 225.834 94.0363 225.159 94.4821C224.484 94.9151 223.663 95.1316 222.695 95.1316ZM232.797 95.1316C232.083 95.1316 231.44 95.0106 230.867 94.7686C230.307 94.5267 229.823 94.1764 229.415 93.718C229.021 93.2595 228.715 92.7119 228.498 92.0751C228.282 91.4256 228.174 90.6997 228.174 89.8974C228.174 89.095 228.282 88.3755 228.498 87.7387C228.715 87.102 229.021 86.5607 229.415 86.115C229.823 85.6565 230.307 85.3063 230.867 85.0643C231.44 84.8224 232.083 84.7014 232.797 84.7014C233.51 84.7014 234.153 84.8224 234.726 85.0643C235.299 85.3063 235.783 85.6565 236.178 86.115C236.585 86.5607 236.897 87.102 237.114 87.7387C237.33 88.3755 237.439 89.095 237.439 89.8974C237.439 90.6997 237.33 91.4256 237.114 92.0751C236.897 92.7119 236.585 93.2595 236.178 93.718C235.783 94.1764 235.299 94.5267 234.726 94.7686C234.153 95.0106 233.51 95.1316 232.797 95.1316ZM232.797 93.164C233.446 93.164 233.955 92.9666 234.325 92.5718C234.694 92.177 234.879 91.5975 234.879 90.8334V88.9804C234.879 88.229 234.694 87.656 234.325 87.2612C233.955 86.8664 233.446 86.669 232.797 86.669C232.16 86.669 231.657 86.8664 231.287 87.2612C230.918 87.656 230.733 88.229 230.733 88.9804V90.8334C230.733 91.5975 230.918 92.177 231.287 92.5718C231.657 92.9666 232.16 93.164 232.797 93.164ZM239.988 94.9023V84.9306H242.434V86.5926H242.529C242.72 86.0704 243.026 85.6247 243.446 85.2554C243.866 84.886 244.452 84.7014 245.203 84.7014C245.891 84.7014 246.483 84.8669 246.98 85.1981C247.477 85.5292 247.846 86.0322 248.088 86.7072H248.126C248.304 86.1468 248.655 85.6756 249.177 85.2936C249.712 84.8988 250.38 84.7014 251.183 84.7014C252.163 84.7014 252.915 85.0389 253.437 85.7138C253.972 86.3888 254.239 87.3503 254.239 88.5984V94.9023H251.794V88.8467C251.794 87.4204 251.259 86.7072 250.189 86.7072C249.947 86.7072 249.712 86.7454 249.483 86.8218C249.266 86.8855 249.069 86.9874 248.89 87.1274C248.725 87.2548 248.591 87.4204 248.489 87.6241C248.387 87.8152 248.336 88.0444 248.336 88.3118V94.9023H245.891V88.8467C245.891 87.4204 245.356 86.7072 244.287 86.7072C244.057 86.7072 243.828 86.7454 243.599 86.8218C243.382 86.8855 243.185 86.9874 243.007 87.1274C242.841 87.2548 242.701 87.4204 242.586 87.6241C242.484 87.8152 242.434 88.0444 242.434 88.3118V94.9023H239.988Z" fill="#0090EC"/>
<path d="M82.3384 60C80.397 59.9787 78.989 59.5413 78.1144 58.688C77.261 57.8347 76.8344 56.576 76.8344 54.912V54.656H76.6424C76.3224 56 75.8317 56.9493 75.1704 57.504C74.5304 58.0373 73.6024 58.304 72.3864 58.304C70.893 58.304 69.7517 57.9093 68.9624 57.12C68.1944 56.3093 67.8104 55.168 67.8104 53.696C67.8104 52.096 68.269 50.7733 69.1864 49.728C70.125 48.6827 71.4584 47.712 73.1864 46.816L76.6744 45.024V43.296H80.0344V53.92C80.0344 54.624 80.1944 55.1147 80.5144 55.392C80.8557 55.6693 81.421 55.808 82.2104 55.808H83.2024V59.136L82.3384 60ZM73.2824 54.112C74.541 54.112 75.4157 53.9733 75.9064 53.696C76.4184 53.4187 76.6744 52.928 76.6744 52.224V48.128L74.0504 49.44C72.8984 49.9947 72.0557 50.4853 71.5224 50.912C70.989 51.3387 70.7224 51.872 70.7224 52.512C70.7224 53.088 70.9037 53.504 71.2664 53.76C71.6504 53.9947 72.3224 54.112 73.2824 54.112ZM78.1144 40.704C77.6024 40.704 77.1757 40.5547 76.8344 40.256C76.5144 39.936 76.3544 39.4347 76.3544 38.752C76.3544 38.048 76.5144 37.5467 76.8344 37.248C77.1757 36.928 77.6024 36.768 78.1144 36.768H78.6584C79.1704 36.768 79.5864 36.928 79.9064 37.248C80.2477 37.5467 80.4184 38.048 80.4184 38.752C80.4184 39.4347 80.2477 39.936 79.9064 40.256C79.5864 40.5547 79.1704 40.704 78.6584 40.704H78.1144ZM73.3464 40.704C72.8344 40.704 72.4077 40.5547 72.0664 40.256C71.7464 39.936 71.5864 39.4347 71.5864 38.752C71.5864 38.048 71.7464 37.5467 72.0664 37.248C72.4077 36.928 72.8344 36.768 73.3464 36.768H73.8904C74.4024 36.768 74.8184 36.928 75.1384 37.248C75.4797 37.5467 75.6504 38.048 75.6504 38.752C75.6504 39.4347 75.4797 39.936 75.1384 40.256C74.8184 40.5547 74.4024 40.704 73.8904 40.704H73.3464ZM82.9679 56.672L83.8319 55.808H84.8239C86.5732 55.808 87.4479 55.008 87.4479 53.408V48.704H90.5839V53.408C90.5839 55.008 91.3839 55.808 92.9839 55.808H94.1999V59.136L93.3359 60C91.6932 60 90.4345 59.68 89.5599 59.04C88.6852 58.4 88.0985 57.3973 87.7999 56.032H87.6399C87.3625 57.44 86.8612 58.4533 86.1359 59.072C85.4319 59.6907 84.3759 60 82.9679 60V56.672ZM91.1279 66.72C90.6159 66.72 90.1892 66.56 89.8479 66.24C89.5279 65.9413 89.3679 65.4507 89.3679 64.768C89.3679 64.064 89.5279 63.552 89.8479 63.232C90.1892 62.9333 90.6159 62.784 91.1279 62.784H91.6719C92.1839 62.784 92.5999 62.9333 92.9199 63.232C93.2612 63.552 93.4319 64.064 93.4319 64.768C93.4319 65.4507 93.2612 65.9413 92.9199 66.24C92.5999 66.56 92.1839 66.72 91.6719 66.72H91.1279ZM86.3599 66.72C85.8479 66.72 85.4212 66.56 85.0799 66.24C84.7599 65.9413 84.5999 65.4507 84.5999 64.768C84.5999 64.064 84.7599 63.552 85.0799 63.232C85.4212 62.9333 85.8479 62.784 86.3599 62.784H86.9039C87.4159 62.784 87.8319 62.9333 88.1519 63.232C88.4932 63.552 88.6639 64.064 88.6639 64.768C88.6639 65.4507 88.4932 65.9413 88.1519 66.24C87.8319 66.56 87.4159 66.72 86.9039 66.72H86.3599ZM93.9829 56.672L94.8469 55.808H96.7349C97.8442 55.808 98.8575 55.7867 99.7749 55.744C100.692 55.7013 101.567 55.616 102.399 55.488C103.231 55.3387 104.063 55.1253 104.895 54.848C105.748 54.5707 106.676 54.1867 107.679 53.696L109.375 52.864V52.704L104.383 51.648L99.0069 50.304V52.832H95.7749V50.368C95.7749 47.7653 96.9695 46.464 99.3589 46.464C99.5082 46.464 99.6682 46.4747 99.8389 46.496C100.01 46.496 100.202 46.5173 100.415 46.56C100.65 46.6027 100.927 46.6667 101.247 46.752C101.567 46.816 101.951 46.912 102.399 47.04L109.055 48.768C110.015 49.0027 110.954 49.184 111.871 49.312C112.81 49.44 113.695 49.504 114.527 49.504H115.135V53.728H112.607L109.215 55.936C107.828 56.832 106.591 57.5573 105.503 58.112C104.415 58.6453 103.38 59.0507 102.399 59.328C101.439 59.6053 100.5 59.7867 99.5829 59.872C98.6869 59.9573 97.7375 60 96.7349 60H93.9829V56.672ZM124.616 60C122.504 60 120.947 59.5307 119.944 58.592C118.963 57.6533 118.472 56.096 118.472 53.92V36.32H121.896V53.472C121.896 54.3893 122.088 55.008 122.472 55.328C122.878 55.648 123.56 55.808 124.52 55.808H125.512V59.136L124.648 60H124.616ZM125.294 56.672L126.158 55.808H127.15C128.899 55.808 129.774 55.008 129.774 53.408V48.704H132.91V53.408C132.91 55.008 133.71 55.808 135.31 55.808H136.526V59.136L135.662 60C134.019 60 132.761 59.68 131.886 59.04C131.011 58.4 130.425 57.3973 130.126 56.032H129.966C129.689 57.44 129.187 58.4533 128.462 59.072C127.758 59.6907 126.702 60 125.294 60V56.672ZM133.422 45.76C132.91 45.76 132.483 45.6107 132.142 45.312C131.822 44.992 131.662 44.4907 131.662 43.808C131.662 43.104 131.822 42.6027 132.142 42.304C132.483 41.984 132.91 41.824 133.422 41.824H133.966C134.478 41.824 134.894 41.984 135.214 42.304C135.555 42.6027 135.726 43.104 135.726 43.808C135.726 44.4907 135.555 44.992 135.214 45.312C134.894 45.6107 134.478 45.76 133.966 45.76H133.422ZM128.654 45.76C128.142 45.76 127.715 45.6107 127.374 45.312C127.054 44.992 126.894 44.4907 126.894 43.808C126.894 43.104 127.054 42.6027 127.374 42.304C127.715 41.984 128.142 41.824 128.654 41.824H129.198C129.71 41.824 130.126 41.984 130.446 42.304C130.787 42.6027 130.958 43.104 130.958 43.808C130.958 44.4907 130.787 44.992 130.446 45.312C130.126 45.6107 129.71 45.76 129.198 45.76H128.654ZM136.309 56.672L137.173 55.808H140.949L141.013 55.648C140.117 54.8373 139.466 53.9627 139.061 53.024C138.677 52.0853 138.485 51.1253 138.485 50.144C138.485 49.2267 138.634 48.3627 138.933 47.552C139.232 46.72 139.648 46.0053 140.181 45.408C140.736 44.7893 141.386 44.3093 142.133 43.968C142.901 43.6053 143.744 43.424 144.661 43.424C145.578 43.424 146.41 43.6053 147.157 43.968C147.904 44.3093 148.544 44.7893 149.077 45.408C149.632 46.0053 150.058 46.72 150.357 47.552C150.656 48.3627 150.805 49.2267 150.805 50.144C150.805 51.1253 150.602 52.0853 150.197 53.024C149.813 53.9627 149.173 54.8373 148.277 55.648L148.341 55.808H152.213V59.136L151.349 60H150.997C149.866 60 148.768 59.8613 147.701 59.584C146.634 59.2853 145.621 58.7947 144.661 58.112C143.701 58.7947 142.688 59.2853 141.621 59.584C140.576 59.8613 139.488 60 138.357 60H136.309V56.672ZM144.661 55.232C145.749 54.6133 146.581 53.952 147.157 53.248C147.733 52.5227 148.021 51.6907 148.021 50.752C148.021 49.792 147.712 49.0347 147.093 48.48C146.496 47.904 145.738 47.616 144.821 47.616H144.469C143.552 47.616 142.784 47.904 142.165 48.48C141.568 49.0347 141.269 49.792 141.269 50.752C141.269 51.6907 141.557 52.5227 142.133 53.248C142.73 53.952 143.573 54.6133 144.661 55.232ZM144.373 40.48C143.861 40.48 143.434 40.3307 143.093 40.032C142.773 39.712 142.613 39.2107 142.613 38.528C142.613 37.824 142.773 37.3227 143.093 37.024C143.434 36.704 143.861 36.544 144.373 36.544H144.917C145.429 36.544 145.845 36.704 146.165 37.024C146.506 37.3227 146.677 37.824 146.677 38.528C146.677 39.2107 146.506 39.712 146.165 40.032C145.845 40.3307 145.429 40.48 144.917 40.48H144.373ZM159.82 61.472C159.308 61.1947 158.839 60.96 158.412 60.768C157.986 60.576 157.57 60.416 157.164 60.288C156.78 60.1813 156.375 60.1067 155.948 60.064C155.543 60.0213 155.084 60 154.572 60H151.98V56.672L152.844 55.808H154.892V36.32H158.316V56.224C158.85 56.3947 159.394 56.608 159.948 56.864C160.524 57.0987 161.154 57.408 161.836 57.792L163.436 58.656L161.42 62.368L159.82 61.472ZM165.095 36.32H168.519V60H165.095V36.32ZM193.085 60.384C190.781 60.384 188.839 60.256 187.261 60C185.703 59.7653 184.434 59.3707 183.453 58.816C182.493 58.24 181.799 57.4933 181.373 56.576C180.946 55.6587 180.733 54.5387 180.733 53.216C180.733 52.3627 180.839 51.4453 181.053 50.464C181.287 49.4613 181.618 48.448 182.045 47.424L184.797 48.224C184.413 49.0133 184.114 49.76 183.901 50.464C183.687 51.168 183.581 51.7973 183.581 52.352C183.581 52.992 183.709 53.536 183.965 53.984C184.242 54.432 184.679 54.7947 185.277 55.072C185.874 55.3493 186.642 55.552 187.581 55.68C188.541 55.808 189.703 55.872 191.069 55.872H195.549C196.999 55.872 198.194 55.84 199.133 55.776C200.093 55.6907 200.85 55.5627 201.405 55.392C201.959 55.2 202.343 54.944 202.557 54.624C202.77 54.304 202.877 53.8987 202.877 53.408V36.32H206.269V53.408C206.269 55.008 207.143 55.808 208.893 55.808H209.885V59.136L209.021 60C207.357 60 206.045 59.68 205.085 59.04C204.146 58.4 203.527 57.3867 203.229 56H203.069C202.898 56.832 202.61 57.5253 202.205 58.08C201.799 58.6347 201.202 59.0827 200.413 59.424C199.645 59.7653 198.663 60.0107 197.469 60.16C196.274 60.3093 194.813 60.384 193.085 60.384ZM190.301 50.368L195.197 48.032L195.133 47.84H192.733C191.986 47.84 191.41 47.68 191.005 47.36C190.599 47.04 190.397 46.4747 190.397 45.664C190.397 45.0027 190.61 44.448 191.037 44C191.485 43.5307 192.167 43.0293 193.085 42.496L195.133 41.28L196.221 43.104L192.413 45.28L192.477 45.504H194.941C195.666 45.504 196.221 45.6533 196.605 45.952C196.989 46.2507 197.181 46.7413 197.181 47.424C197.181 48.1707 196.989 48.768 196.605 49.216C196.242 49.664 195.613 50.112 194.717 50.56L191.293 52.288L190.301 50.368ZM209.665 56.672L210.529 55.808H211.521C213.271 55.808 214.145 55.008 214.145 53.408V48.704H217.281V53.408C217.281 55.008 218.081 55.808 219.681 55.808H220.897V59.136L220.033 60C218.391 60 217.132 59.68 216.257 59.04C215.383 58.4 214.796 57.3973 214.497 56.032H214.337C214.06 57.44 213.559 58.4533 212.833 59.072C212.129 59.6907 211.073 60 209.665 60V56.672ZM217.793 45.76C217.281 45.76 216.855 45.6107 216.513 45.312C216.193 44.992 216.033 44.4907 216.033 43.808C216.033 43.104 216.193 42.6027 216.513 42.304C216.855 41.984 217.281 41.824 217.793 41.824H218.337C218.849 41.824 219.265 41.984 219.585 42.304C219.927 42.6027 220.097 43.104 220.097 43.808C220.097 44.4907 219.927 44.992 219.585 45.312C219.265 45.6107 218.849 45.76 218.337 45.76H217.793ZM213.025 45.76C212.513 45.76 212.087 45.6107 211.745 45.312C211.425 44.992 211.265 44.4907 211.265 43.808C211.265 43.104 211.425 42.6027 211.745 42.304C212.087 41.984 212.513 41.824 213.025 41.824H213.569C214.081 41.824 214.497 41.984 214.817 42.304C215.159 42.6027 215.329 43.104 215.329 43.808C215.329 44.4907 215.159 44.992 214.817 45.312C214.497 45.6107 214.081 45.76 213.569 45.76H213.025ZM220.68 56.672L221.544 55.808C222.163 55.808 222.675 55.7973 223.08 55.776C223.486 55.7547 223.87 55.7013 224.232 55.616C224.211 55.4667 224.19 55.3173 224.168 55.168C224.168 55.0187 224.168 54.8587 224.168 54.688C224.168 52.2347 225.672 50.1227 228.68 48.352L230.6 47.2H234.312L236.776 53.792C237.075 54.6027 237.395 55.1467 237.736 55.424C238.099 55.68 238.632 55.808 239.336 55.808H240.2V59.136L239.336 60C238.056 60 237.043 59.808 236.296 59.424C235.571 59.0187 234.942 58.368 234.408 57.472L234.216 57.504V60H230.216C228.723 60 227.507 59.7227 226.568 59.168C225.651 58.6133 225 57.8773 224.616 56.96H224.36C223.806 58.9867 222.579 60 220.68 60V56.672ZM226.856 54.272C226.856 54.8267 227.07 55.2213 227.496 55.456C227.944 55.6907 228.542 55.808 229.288 55.808H233.64L231.752 50.816L229.512 51.808C228.659 52.1707 227.998 52.5547 227.528 52.96C227.08 53.3653 226.856 53.8027 226.856 54.272ZM239.977 56.672L240.841 55.808H241.737C242.633 55.808 243.283 55.616 243.689 55.232C244.115 54.8267 244.329 54.2187 244.329 53.408V36.32H247.753V53.408C247.753 55.008 248.542 55.808 250.121 55.808H251.241V59.136L250.377 60C248.713 60 247.422 59.68 246.505 59.04C245.609 58.4 245.011 57.3973 244.713 56.032H244.521C244.265 57.44 243.785 58.4533 243.081 59.072C242.377 59.6907 241.342 60 239.977 60V56.672ZM251.023 56.672L251.887 55.808H256.751C257.562 55.808 258.148 55.7013 258.511 55.488C258.874 55.2533 259.055 54.8693 259.055 54.336C259.055 53.9307 258.927 53.5787 258.671 53.28C258.436 52.9813 257.978 52.608 257.295 52.16L252.207 48.8V41.248L267.119 35.936V39.776L253.679 44.576V44.736L257.295 47.232C258.17 47.808 258.906 48.352 259.503 48.864C260.1 49.3547 260.58 49.8667 260.943 50.4C261.306 50.912 261.562 51.4453 261.711 52C261.882 52.5547 261.967 53.1627 261.967 53.824C261.967 55.8933 261.476 57.44 260.495 58.464C259.514 59.488 257.956 60 255.823 60H251.023V56.672ZM276.374 54.176H271.318L270.294 60H267.574L268.566 54.176H265.078V51.552H269.046L269.942 46.112H266.486V43.488H270.422L271.414 37.664H274.134L273.11 43.488H278.198L279.19 37.664H281.91L280.918 43.488H284.406V46.112H280.438L279.51 51.552H282.998V54.176H279.062L278.038 60H275.35L276.374 54.176ZM276.79 51.552L277.75 46.112H272.694L271.734 51.552H276.79Z" fill="#31E716"/>
<path d="M36.8162 126C35.294 126 34.5329 126 33.9775 125.574C33.4222 125.147 33.2258 124.412 32.8329 122.941L10.2768 38.5029C9.67245 36.2404 9.37025 35.1092 9.91999 34.3229C9.95522 34.2725 9.99269 34.2237 10.0323 34.1766C10.6501 33.4426 11.821 33.4426 14.1628 33.4426V33.4426C15.6092 33.4426 16.3323 33.4426 16.8714 33.8298C16.9071 33.8554 16.9419 33.8822 16.9759 33.9101C17.4891 34.331 17.6757 35.0297 18.0489 36.427L38.9977 114.869C39.3905 116.339 39.5868 117.075 40.1422 117.501C40.6976 117.928 41.4587 117.928 42.981 117.928H338.898C340.356 117.928 341.085 117.928 341.626 118.321C341.657 118.343 341.687 118.366 341.716 118.39C342.235 118.813 342.423 119.517 342.798 120.926V120.926C343.404 123.204 343.707 124.342 343.148 125.131C343.117 125.174 343.085 125.216 343.051 125.257C342.433 126 341.254 126 338.898 126H36.8162ZM305.127 11.1303C304.734 9.66002 304.537 8.92486 303.982 8.49849C303.426 8.07212 302.665 8.07212 301.143 8.07212H5.25061C3.79263 8.07212 3.06364 8.07212 2.52206 7.67912C2.49134 7.65683 2.46124 7.63369 2.4318 7.60974C1.91274 7.18744 1.72526 6.48297 1.35031 5.07402V5.07402C0.744181 2.79639 0.441117 1.65757 1.00018 0.869104C1.03085 0.825848 1.06318 0.783792 1.09709 0.743029C1.71526 0 2.89372 0 5.25062 0H307.325C308.847 0 309.608 0 310.164 0.426564C310.719 0.853128 310.915 1.58857 311.308 3.05945L333.71 86.9706C334.312 89.2236 334.613 90.3502 334.068 91.1347C334.03 91.1891 333.99 91.2416 333.947 91.2921C333.33 92.0207 332.164 92.0207 329.832 92.0207V92.0207C328.392 92.0207 327.671 92.0207 327.134 91.6365C327.095 91.609 327.058 91.5802 327.021 91.5501C326.511 91.1299 326.325 90.4342 325.953 89.0429L305.127 11.1303Z" fill="#343132"/>
</svg>
