<svg width="75" height="38" viewBox="0 0 75 38" fill="none" xmlns="http://www.w3.org/2000/svg">
<g clip-path="url(#clip0_12_3232)">
<path d="M26.1161 27.9127H18.1443L18.835 25.3926H26.8069L26.1161 27.9127Z" fill="#0090EC"/>
<path d="M38.8461 27.9127H30.6333L31.324 25.3926H39.5368L38.8461 27.9127Z" fill="#0090EC"/>
<path d="M55.9785 27.9127H43.3643L44.0539 25.3926H56.6692L55.9785 27.9127Z" fill="#0090EC"/>
<path d="M10.3 0L2.73189 27.9141H5.28065L12.1869 2.43445H74.3435L75.0011 0H10.3ZM62.8066 35.5656H0.657538L0 38H64.6989L72.2188 10.2477H69.6754L62.8066 35.5656Z" fill="#343132"/>
<path d="M20.9867 20.3427L17.6572 10.2441H20.2124L22.4752 17.6734L24.7391 10.2441H27.2943L23.9649 20.3427H20.9856H20.9867Z" fill="#31E716"/>
<path d="M38.8526 19.0315C37.8203 20.0409 36.5652 20.5455 35.0852 20.5455C33.6052 20.5455 32.3501 20.0409 31.3177 19.0315C30.2854 18.0222 29.7703 16.7759 29.7703 15.2958C29.7703 13.8156 30.2864 12.5693 31.3177 11.5589C32.349 10.5496 33.6052 10.0449 35.0852 10.0449C36.5652 10.0449 37.8203 10.5496 38.8526 11.5589C39.8839 12.5693 40.4001 13.8146 40.4001 15.2958C40.4001 16.7769 39.8839 18.0222 38.8526 19.0315ZM32.9605 17.4593C33.5302 18.0169 34.2381 18.2962 35.0852 18.2962C35.9323 18.2962 36.6401 18.0169 37.2099 17.4593C37.7796 16.9018 38.0645 16.1802 38.0645 15.2958C38.0645 14.4113 37.7796 13.6897 37.2099 13.1311C36.6401 12.5735 35.9323 12.2942 35.0852 12.2942C34.2381 12.2942 33.5302 12.5735 32.9605 13.1311C32.3908 13.6897 32.1059 14.4102 32.1059 15.2958C32.1059 16.1813 32.3908 16.9018 32.9605 17.4593Z" fill="#31E716"/>
<path d="M45.6946 20.3427L42.876 10.2441H45.3294L47.0964 17.3126L49.068 10.2441H50.9667L52.9382 17.3126L54.7052 10.2441H57.1587L54.3401 20.3427H51.6821L50.0179 14.3851L48.3537 20.3427H45.6957H45.6946Z" fill="#31E716"/>
</g>
<defs>
<clipPath id="clip0_12_3232">
<rect width="75" height="38" fill="white"/>
</clipPath>
</defs>
</svg>
